<svg xmlns="http://www.w3.org/2000/svg" version="1.1" xmlns:xlink="http://www.w3.org/1999/xlink" xmlns:svgjs="http://svgjs.dev/svgjs" width="2000" height="727" viewBox="0 0 2000 727"><g transform="matrix(1,0,0,1,-1.2121212121212466,0.9161587886248981)"><svg viewBox="0 0 396 144" data-background-color="#ffffff" preserveAspectRatio="xMidYMid meet" height="727" width="2000" xmlns="http://www.w3.org/2000/svg" xmlns:xlink="http://www.w3.org/1999/xlink"><g id="tight-bounds" transform="matrix(1,0,0,1,0.2400000000000091,-0.1814674314289988)"><svg viewBox="0 0 395.52 144.36292936387068" height="144.36292936387068" width="395.52"><g><svg viewBox="0 0 669.6836364654374 244.43135999999998" height="144.36292936387068" width="395.52"><g transform="matrix(1,0,0,1,274.16363646543743,82.75334770337275)"><svg viewBox="0 0 395.52 78.92466459325448" height="78.92466459325448" width="395.52"><g id="textblocktransform"><svg viewBox="0 0 395.52 78.92466459325448" height="78.92466459325448" width="395.52" id="textblock"><g><svg viewBox="0 0 395.52 50.37746567281287" height="50.37746567281287" width="395.52"><g transform="matrix(1,0,0,1,0,0)"><svg width="395.52" viewBox="0.550000011920929 -29.5 382.3000183105469 48.70000076293945" height="50.37746567281287" data-palette-color="#111111"><path d="M34.85 1.25L34.85 1.25Q33.3 1.25 32.6-0.13 31.9-1.5 31.9-3.63 31.9-5.75 32.8-9.45L32.8-9.45Q31.05-9.6 26.85-10.15L26.85-10.15Q19.9-1.55 15.3 1.8L15.3 1.8Q11.35 4.75 7.1 4.75L7.1 4.75Q4.4 4.75 2.48 3.4 0.55 2.05 0.55-0.6L0.55-0.6Q0.55-1.1 0.8-1.53 1.05-1.95 1.3-1.75 1.55-1.55 1.55-0.6L1.55-0.6Q1.55 1.1 2.88 1.95 4.2 2.8 6.1 2.8L6.1 2.8Q10.2 2.8 14.18 0.13 18.15-2.55 25-10.35L25-10.35Q17.65-11.25 15.3-11.25L15.3-11.25Q8.95-11.25 7.45-7.1L7.45-7.1Q7.25-6.55 7.25-6.08 7.25-5.6 7.45-5.23 7.65-4.85 7.53-4.63 7.4-4.4 7.1-4.42 6.8-4.45 6.6-4.75L6.6-4.75Q6.05-5.7 6.05-6.6L6.05-6.6Q6.05-9.7 7.18-11.18 8.3-12.65 9.8-13.05L9.8-13.05Q11.6-13.55 14-13.55 16.4-13.55 26.1-11.65L26.1-11.65Q28.8-14.75 34.3-21.63 39.8-28.5 39.8-28.6L39.8-28.6 39.85-28.6Q39.9-28.65 40.1-28.75L40.1-28.75Q41.3-29.45 42.7-29.45L42.7-29.45Q43.2-29.45 43.2-28.95L43.2-28.95Q43.2-28.9 43.15-28.83 43.1-28.75 43.05-28.63 43-28.5 42.95-28.4L42.95-28.4Q38.15-20.45 35.5-10.5L35.5-10.5 35.35-10.15 36.6-10.1Q37-10.05 38.02-10.05 39.05-10.05 40.2-10.53 41.35-11 41.68-11.55 42-12.1 42.25-11.8 42.5-11.5 42.3-11.15L42.3-11.15Q41.75-10.15 40.35-9.7L40.35-9.7Q39.15-9.2 37.98-9.2 36.8-9.2 36.45-9.2L36.45-9.2 35.1-9.25Q34.15-4.9 34.15-2.33 34.15 0.25 35.55 0.25L35.55 0.25Q36.9 0.25 39.75-1.9 42.6-4.05 45.1-7.45L45.1-7.45Q45.25-7.65 45.5-7.55 45.75-7.45 45.75-7.3 45.75-7.15 45.68-6.93 45.6-6.7 44.9-5.8L44.9-5.8Q42.8-3 39.75-0.5L39.75-0.5Q37.55 1.25 34.85 1.25ZM37.6-23.9L37.6-23.9Q37.65-24 37.73-24.18 37.8-24.35 37.85-24.45L37.85-24.45Q31.6-15.9 27.8-11.25L27.8-11.25 33.05-10.4Q34.45-15.85 37.6-23.9ZM50.2-2.2L50.2-2.2 50.2-1.35Q50.2-1 49.65-0.2 49.1 0.6 48.8 0.6L48.8 0.6Q47.15 0.6 47.15-0.2L47.15-0.2Q47.15-0.6 48.15-1.4L48.15-1.4Q49.55-2.5 49.87-2.5 50.2-2.5 50.2-2.2ZM58.3-13.85L58.3-13.85Q59.55-13.85 59.8-13.05L59.8-13.05Q59.9-12.6 59.67-12.18 59.45-11.75 59.35-11.5 59.25-11.25 59.2-11.1L59.2-11.1Q58.95-10.6 58.7-10.15L58.7-10.15Q55.85-4.45 55.7-2.9L55.7-2.9Q55.65-2.45 55.65-1.75 55.65-1.05 56.05-0.6L56.05-0.6Q56.75 0.2 58.05-0.5 59.35-1.2 61.67-3.3 64-5.4 65.45-7.4L65.45-7.4Q65.65-7.65 65.9-7.53 66.15-7.4 66.15-7.28 66.15-7.15 66.05-7L66.05-7Q65.3-5.65 63.35-3.55L63.35-3.55Q60.15-0.1 58 0.7L58 0.7Q56.75 1.15 55.9 1.15L55.9 1.15Q53.9 1.15 53.25-0.75L53.25-0.75Q53.15-1.1 53.15-1.6L53.15-1.6Q53.15-3.35 54.75-6.9L54.75-6.9Q54.5-6.35 52.8-4.4L52.8-4.4Q52.35-3.9 52.1-4.4L52.1-4.4Q52.05-4.5 52.05-4.67 52.05-4.85 52.25-5.1L52.25-5.1Q54.7-8.15 56.1-10.25L56.1-10.25Q56-10.5 56.2-10.9L56.2-10.9Q57.2-13.7 57.95-13.85L57.95-13.85Q58.1-13.85 58.3-13.85ZM62.25-20.5L62.25-20.5 61.85-18.9Q61.85-18.45 61.2-17.45 60.55-16.45 60.2-16.45L60.2-16.45Q58.05-16.45 58.05-17.5L58.05-17.5Q58.05-17.7 60.2-19.35L60.2-19.35 61.05-20Q61.85-20.7 62.05-20.7 62.25-20.7 62.25-20.5ZM70.54-2.2L70.54-2.2 70.54-1.35Q70.54-1 69.99-0.2 69.44 0.6 69.14 0.6L69.14 0.6Q67.49 0.6 67.49-0.2L67.49-0.2Q67.49-0.6 68.49-1.4L68.49-1.4Q69.89-2.5 70.22-2.5 70.54-2.5 70.54-2.2ZM92.59-20.4L92.59-20.4Q92.59-19.6 93.01-19 93.44-18.4 93.79-18.15L93.79-18.15Q94.49-17.7 95.59-17.15L95.59-17.15Q96.19-16.7 95.84-16.6L95.84-16.6Q95.69-16.6 95.49-16.65L95.49-16.65Q94.29-16.9 92.94-18.1 91.59-19.3 91.54-20.85L91.54-20.85Q91.39-21.4 91.39-21.8L91.39-21.8Q91.39-23.95 93.19-25.55L93.19-25.55Q96.54-28.4 103.84-28.4L103.84-28.4Q103.84-28.6 103.99-28.9L103.99-28.9Q104.09-29.5 105.54-29.5L105.54-29.5Q106.79-29.5 106.74-28.9L106.74-28.9Q106.54-28.5 106.49-28.25L106.49-28.25Q109.69-28.05 111.84-26.95L111.84-26.95Q112.54-26.6 112.86-26.1 113.19-25.6 113.19-25.4L113.19-25.4Q113.19-24.95 111.36-25.58 109.54-26.2 105.79-26.2L105.79-26.2Q105.54-25.15 104.06-20.9 102.59-16.65 102.19-15.63 101.79-14.6 101.09-12.78 100.39-10.95 99.84-9.8 99.29-8.65 98.59-7.2L98.59-7.2Q97.39-4.75 95.74-2.6L95.74-2.6Q94.49-1.15 93.84-0.65L93.84-0.65Q94.69-0.65 97.14-0.65 99.59-0.65 101.44-0.78 103.29-0.9 103.46-0.75 103.64-0.6 103.49-0.4L103.49-0.4Q103.19 0.1 102.69 0.38 102.19 0.65 95.34 0.85 88.49 1.05 86.79 1.05 85.09 1.05 84.34 1.05L84.34 1.05Q83.19 1 83.19 0.15L83.19 0.15Q83.19-0.3 83.49-1.1L83.49-1.1Q83.84-1.9 84.86-2.13 85.89-2.35 86.69-1.7L86.69-1.7Q88.04-0.6 89.34-0.6 90.64-0.6 92.01-1.1 93.39-1.6 94.79-3.4L94.79-3.4Q98.84-8.8 103.29-26.15L103.29-26.15Q98.69-25.75 95.64-24.28 92.59-22.8 92.59-20.4ZM112.84-13L112.84-13Q112.84-12.65 112.29-11.48 111.74-10.3 109.14-3.4L109.14-3.4Q110.94-5.6 113.69-8.5L113.69-8.5Q119.24-14.3 121.34-14.3L121.34-14.3Q121.79-14.3 122.21-14.05 122.64-13.8 122.64-12.93 122.64-12.05 122.09-10.98 121.54-9.9 120.84-8.35 120.14-6.8 119.89-6.4L119.89-6.4Q124.09-10.2 126.24-11.03 128.39-11.85 129.09-11.85 129.79-11.85 129.79-11.35L129.79-11.35Q129.79-11.05 129.04-9.9 128.29-8.75 127.39-6.5 126.49-4.25 126.39-3.35 126.29-2.45 126.29-1.75 126.29-1.05 126.69-0.6L126.69-0.6Q127.44 0.2 128.74-0.5 130.04-1.2 132.36-3.3 134.69-5.4 136.09-7.4L136.09-7.4Q136.29-7.65 136.56-7.53 136.84-7.4 136.84-7.28 136.84-7.15 136.74-7L136.74-7Q135.99-5.65 134.04-3.55L134.04-3.55Q130.84-0.1 128.69 0.7L128.69 0.7Q126.34 1.5 125.29 0.9 124.24 0.3 123.99-0.45 123.74-1.2 123.74-1.95L123.74-1.95Q123.74-4.3 124.66-6.65 125.59-9 126.14-9.85L126.14-9.85Q124.24-9.05 122.89-7.85L122.89-7.85Q120.84-6.05 119.59-4.7L119.59-4.7 118.59-3.6Q118.14-2.5 117.01-2.35 115.89-2.2 115.94-3.1L115.94-3.1Q116.04-4.05 117.79-7.35 119.54-10.65 119.54-11.03 119.54-11.4 119.14-11.4L119.14-11.4Q118.24-11.4 115.89-9.35L115.89-9.35Q114.34-7.9 111.31-3.88 108.29 0.15 107.89 0.4L107.89 0.4Q106.09 1.3 105.64 1.3 105.19 1.3 105.19 1.15 105.19 1 105.34 0.7 105.49 0.4 108.39-8L108.39-8Q107.29-6.3 106.39-5.4L106.39-5.4Q105.99-4.95 105.99-5.58 105.99-6.2 106.34-6.65L106.34-6.65Q108.59-9.6 109.64-11.65L109.64-11.65Q109.94-13.4 110.84-13.7L110.84-13.7Q111.39-13.9 112.11-13.7 112.84-13.5 112.84-13ZM137.98 0.55L137.98 0.55Q137.18 0.55 136.26 0.08 135.33-0.4 134.68-1.28 134.03-2.15 134.03-3.15 134.03-4.15 134.48-5.05L134.48-5.05Q135.48-7.15 137.71-9.13 139.93-11.1 142.33-12.5 144.73-13.9 146.13-14.25 147.53-14.6 148.86-14.6 150.18-14.6 151.13-13.93 152.08-13.25 152.08-12.5L152.08-12.5Q152.08-12.25 152.03-12.2 151.98-12.15 151.78-12.25L151.78-12.25Q151.18-13.2 149.31-13.2 147.43-13.2 145.06-11.98 142.68-10.75 140.58-8.9L140.58-8.9Q138.83-7.25 137.51-5.18 136.18-3.1 136.18-2.15L136.18-2.15Q136.18-0.3 137.23-0.3 138.28-0.3 140.43-2L140.43-2Q143.98-5 145.28-6.4L145.28-6.4Q149.88-11.35 150.23-11.35L150.23-11.35Q150.83-11.35 151.68-11 152.53-10.65 152.23-10.15L152.23-10.15Q149.68-6.55 149.23-2.9L149.23-2.9Q149.18-2.45 149.18-1.75 149.18-1.05 149.58-0.6L149.58-0.6Q150.33 0.2 151.63-0.5 152.93-1.2 155.26-3.3 157.58-5.4 158.98-7.4L158.98-7.4Q159.18-7.65 159.43-7.53 159.68-7.4 159.68-7.3L159.68-7.3Q159.68-6.55 157.31-4.03 154.93-1.5 153.68-0.6L153.68-0.6Q151.33 1.15 149.33 1.15L149.33 1.15Q147.43 1.15 146.78-0.75L146.78-0.75Q146.63-1.35 146.63-2.1L146.63-2.1Q146.63-4.35 147.58-6.85L147.58-6.85Q147.38-6.75 145.73-4.85 144.08-2.95 141.91-1.2 139.73 0.55 137.98 0.55ZM156.98 19.05L156.98 19.05Q156.58 19.05 155.98 18.9L155.98 18.9Q153.43 18.25 153.43 16.23 153.43 14.2 156.06 11.15 158.68 8.1 167.13 2.5L167.13 2.5Q170.73-4.85 172.13-9.15L172.13-9.15Q169.33-5.75 168.13-4.45L168.13-4.45Q163.63 0.55 160.88 0.55L160.88 0.55Q160.08 0.55 159.16 0.08 158.23-0.4 157.58-1.28 156.93-2.15 156.93-3.15L156.93-3.15Q156.93-5.8 160.63-9.1L160.63-9.1Q162.83-11.1 165.23-12.5 167.63-13.9 169.03-14.25 170.43-14.6 171.73-14.6 173.03-14.6 174.03-13.9 175.03-13.2 175.03-12.5L175.03-12.5Q175.03-12.1 174.63-12.25L174.63-12.25Q174.08-13.2 172.21-13.2 170.33-13.2 167.96-11.98 165.58-10.75 163.68-9.08 161.78-7.4 160.46-5.28 159.13-3.15 159.13-2.15L159.13-2.15Q159.13-0.4 160.13-0.4L160.13-0.4Q161.53-0.4 164.43-2.7L164.43-2.7Q168.73-6.05 172.68-10.85L172.68-10.85Q173.33-11.8 175.38-10.8L175.38-10.8Q176.18-10.4 176.03-10.1L176.03-10.1Q175.38-8.65 173.66-5.08 171.93-1.5 171.08 0.3L171.08 0.3Q172.23-0.3 175.01-2.73 177.78-5.15 179.88-7.6L179.88-7.6Q180.98-8.9 180.98-8L180.98-8Q180.98-6.75 174.98-1.4L174.98-1.4Q171.53 1.7 170.08 2.5L170.08 2.5Q165.83 11.25 164.38 13.5L164.38 13.5Q160.63 19.05 156.98 19.05ZM166.18 4.4L166.18 4.4Q160.18 8.9 157.58 11.53 154.98 14.15 154.98 16.45L154.98 16.45Q154.98 17.15 155.43 17.45 155.88 17.75 156.38 17.75 156.88 17.75 157.83 17 158.78 16.25 159.46 15.53 160.13 14.8 160.63 14.18 161.13 13.55 161.76 12.58 162.38 11.6 162.73 11.05 163.08 10.5 163.71 9.33 164.33 8.15 164.56 7.73 164.78 7.3 165.41 6 166.03 4.7 166.18 4.4ZM190.68-14.55L190.68-14.55Q193.38-14.55 193.38-11.95L193.38-11.95Q193.38-10.6 192.63-9.75L192.63-9.75Q191.38-7.9 188.58-6.53 185.78-5.15 183.83-5L183.83-5Q183.13-4.95 183.08-5.4L183.08-5.4Q183.03-5.6 183.2-5.65 183.38-5.7 183.48-5.7L183.48-5.7Q184.63-5.8 186.43-6.8L186.43-6.8Q189.78-8.6 191.33-10.5L191.33-10.5Q191.98-11.4 191.98-12.23 191.98-13.05 191.18-13.05L191.18-13.05Q190.53-13.05 189.43-12.5L189.43-12.5Q187.08-11.4 184.48-8.68 181.88-5.95 181.08-3.35L181.08-3.35Q180.83-2.55 180.83-1.78 180.83-1 181.48-0.3 182.13 0.4 183.48 0.4L183.48 0.4Q184.98 0.4 186.93-0.4L186.93-0.4Q192.58-2.7 195.63-7.35L195.63-7.35Q195.93-7.75 196.18-7.5L196.18-7.5Q196.38-7.4 196.38-7.25 196.38-7.1 196.23-6.9L196.23-6.9Q194.73-4.4 192.43-2.45L192.43-2.45Q187.98 1.35 183.78 1.35L183.78 1.35Q180.18 1.35 178.73-0.8L178.73-0.8Q178.18-1.65 178.18-2.85 178.18-4.05 178.83-5.7L178.83-5.7Q180.08-8.55 184.18-11.55 188.28-14.55 190.68-14.55ZM220.87 0.15L220.87 0.15Q219.32 0.45 217.77 0.45L217.77 0.45Q212.72 0.45 209.77-2.8L209.77-2.8Q207.72-5.1 207.72-8.65L207.72-8.65Q207.72-16.3 214.62-22.65L214.62-22.65Q222.32-29.5 233.37-29.5L233.37-29.5Q236.52-29.5 238.82-28.3L238.82-28.3Q240.67-27.3 240.67-25.3L240.67-25.3Q240.67-24.45 240.17-24.35L240.17-24.35Q239.52-24.2 239.47-25.1L239.47-25.1Q239.27-28.4 234.37-28.4L234.37-28.4Q232.17-28.4 228.95-27.33 225.72-26.25 222.27-24.25 218.82-22.25 215.82-19.83 212.82-17.4 210.9-14.35 208.97-11.3 208.97-8.25 208.97-5.2 211.1-3.58 213.22-1.95 216.32-1.95L216.32-1.95Q219.72-1.95 224.22-3.15L224.22-3.15Q226.72-3.9 228.97-5.28 231.22-6.65 232.42-7.7L232.42-7.7Q234.67-9.6 236.97-11.9L236.97-11.9Q238.17-14.95 240.92-15.45L240.92-15.45Q242.07-15.65 243.42-15.45L243.42-15.45 244.02-15.35Q244.47-15.25 244.47-15.1L244.47-15.1Q244.47-14.6 243.82-14.65L243.82-14.65Q243.77-14.65 243.72-14.65L243.72-14.65Q241.02-14.65 239.27-9.6L239.27-9.6Q237.92-5.55 236.72-2.35L236.72-2.35Q239.37-2.95 240.22-2.95 241.07-2.95 241.42-2.75 241.77-2.55 241.55-2.3 241.32-2.05 241.1-2.15 240.87-2.25 240.3-2.25 239.72-2.25 238.05-1.83 236.37-1.4 236.07-0.6L236.07-0.6Q231.07 12.05 223.97 17L223.97 17Q220.77 19.2 218.27 19.2L218.27 19.2Q217.32 19.2 216.47 18.9L216.47 18.9Q214.17 18.05 214.17 15.5L214.17 15.5Q214.17 12.45 217.32 8.85L217.32 8.85Q223.42 1.8 233.97-1.6L233.97-1.6Q235.27-5.55 236.37-9.45L236.37-9.45Q227.42-1 220.87 0.15ZM216.87 14.8L216.87 14.8Q216.87 15.35 217.02 15.9L217.02 15.9Q217.52 17.85 219.52 17.85L219.52 17.85Q222.47 17.85 225.72 13.9L225.72 13.9Q230.57 7.85 233.62-0.65L233.62-0.65Q224.87 2.2 219.77 8.6L219.77 8.6Q216.87 12.15 216.87 14.8ZM257.52-14.55L257.52-14.55Q260.22-14.55 260.22-11.95L260.22-11.95Q260.22-10.6 259.47-9.75L259.47-9.75Q258.22-7.9 255.42-6.53 252.62-5.15 250.67-5L250.67-5Q249.97-4.95 249.92-5.4L249.92-5.4Q249.87-5.6 250.05-5.65 250.22-5.7 250.32-5.7L250.32-5.7Q251.47-5.8 253.27-6.8L253.27-6.8Q256.62-8.6 258.17-10.5L258.17-10.5Q258.82-11.4 258.82-12.23 258.82-13.05 258.02-13.05L258.02-13.05Q257.37-13.05 256.27-12.5L256.27-12.5Q253.92-11.4 251.32-8.68 248.72-5.95 247.92-3.35L247.92-3.35Q247.67-2.55 247.67-1.78 247.67-1 248.32-0.3 248.97 0.4 250.32 0.4L250.32 0.4Q251.82 0.4 253.77-0.4L253.77-0.4Q259.42-2.7 262.47-7.35L262.47-7.35Q262.77-7.75 263.02-7.5L263.02-7.5Q263.22-7.4 263.22-7.25 263.22-7.1 263.07-6.9L263.07-6.9Q261.57-4.4 259.27-2.45L259.27-2.45Q254.82 1.35 250.62 1.35L250.62 1.35Q247.02 1.35 245.57-0.8L245.57-0.8Q245.02-1.65 245.02-2.85 245.02-4.05 245.67-5.7L245.67-5.7Q246.92-8.55 251.02-11.55 255.12-14.55 257.52-14.55ZM275.82-14.2L275.82-14.2Q276.97-14.2 276.97-12.98 276.97-11.75 275.82-9.6 274.67-7.45 274.12-6.1L274.12-6.1Q273.17-3.8 273.17-2.43 273.17-1.05 273.57-0.6L273.57-0.6Q274.32 0.2 275.62-0.53 276.92-1.25 279.24-3.33 281.57-5.4 282.97-7.4L282.97-7.4Q283.17-7.65 283.44-7.53 283.72-7.4 283.72-7.28 283.72-7.15 283.62-7L283.62-7Q282.87-5.65 280.92-3.55 278.97-1.45 277.17-0.18 275.37 1.1 273.62 1.1L273.62 1.1Q271.92 1.05 271.22 0.33 270.52-0.4 270.52-1.5 270.52-2.6 270.72-3.63 270.92-4.65 271.47-6L271.47-6Q272.37-8.15 273.04-9.35 273.72-10.55 273.72-10.93 273.72-11.3 273.32-11.3L273.32-11.3Q272.52-11.3 270.27-9.35L270.27-9.35Q268.72-7.9 265.69-3.88 262.67 0.15 262.27 0.4L262.27 0.4Q260.47 1.3 260.02 1.3 259.57 1.3 259.57 1.15 259.57 1 259.67 0.73 259.77 0.45 260.64-2 261.52-4.45 262.54-7.38 263.57-10.3 263.79-10.9 264.02-11.5 264.09-11.93 264.17-12.35 264.27-12.65 264.37-12.95 264.64-13.33 264.92-13.7 265.37-13.73 265.82-13.75 266.52-13.63 267.22-13.5 267.22-13L267.22-13Q267.22-12.65 266.67-11.48 266.12-10.3 263.52-3.4L263.52-3.4Q265.32-5.6 268.07-8.47 270.82-11.35 272.72-12.85L272.72-12.85Q274.62-14.2 275.82-14.2ZM293.92-14.55L293.92-14.55Q296.62-14.55 296.62-11.95L296.62-11.95Q296.62-10.6 295.87-9.75L295.87-9.75Q294.62-7.9 291.81-6.53 289.01-5.15 287.06-5L287.06-5Q286.37-4.95 286.31-5.4L286.31-5.4Q286.26-5.6 286.44-5.65 286.62-5.7 286.72-5.7L286.72-5.7Q287.87-5.8 289.67-6.8L289.67-6.8Q293.01-8.6 294.56-10.5L294.56-10.5Q295.22-11.4 295.22-12.23 295.22-13.05 294.42-13.05L294.42-13.05Q293.76-13.05 292.67-12.5L292.67-12.5Q290.31-11.4 287.72-8.68 285.12-5.95 284.31-3.35L284.31-3.35Q284.06-2.55 284.06-1.78 284.06-1 284.72-0.3 285.37 0.4 286.72 0.4L286.72 0.4Q288.22 0.4 290.17-0.4L290.17-0.4Q295.81-2.7 298.87-7.35L298.87-7.35Q299.17-7.75 299.42-7.5L299.42-7.5Q299.62-7.4 299.62-7.25 299.62-7.1 299.47-6.9L299.47-6.9Q297.97-4.4 295.67-2.45L295.67-2.45Q291.22 1.35 287.01 1.35L287.01 1.35Q283.42 1.35 281.97-0.8L281.97-0.8Q281.42-1.65 281.42-2.85 281.42-4.05 282.06-5.7L282.06-5.7Q283.31-8.55 287.42-11.55 291.51-14.55 293.92-14.55ZM304.91 1.25L304.91 1.25Q302.36 1.25 302.36-1.83 302.36-4.9 306.76-9.4L306.76-9.4Q307.11-9.75 307.26-9.95L307.26-9.95 307.61-10.45Q308.31-11.4 308.26-11.65L308.26-11.65 308.11-12.1Q307.91-12.7 306.46-12.98 305.01-13.25 304.11-13.25L304.11-13.25Q299.61-6.9 298.91-6 298.21-5.1 297.96-5.25 297.71-5.4 297.71-5.6 297.71-5.8 298.01-6.2L298.01-6.2Q300.71-9.5 302.66-13.25L302.66-13.25Q302.06-13.35 301.76-13.68 301.46-14 301.71-14.78 301.96-15.55 303.24-16.85 304.51-18.15 305.46-18.6 306.41-19.05 306.66-19.15 306.91-19.25 307.21-19.25L307.21-19.25Q307.81-19.25 306.81-17.45L306.81-17.45 304.86-14.35Q307.11-14.2 308.71-14.2L308.71-14.2 310.46-14.25Q311.31-14.25 311.71-14.03 312.11-13.8 311.91-13.25L311.91-13.25Q311.56-12.3 310.16-10.7L310.16-10.7Q307.16-7.2 305.66-3.25L305.66-3.25Q305.31-2.3 305.31-1.6L305.31-1.6Q305.31-0.15 306.36-0.15L306.36-0.15Q306.71-0.15 307.69-0.7 308.66-1.25 310.96-3.33 313.26-5.4 314.66-7.4L314.66-7.4Q314.86-7.65 315.14-7.53 315.41-7.4 315.41-7.28 315.41-7.15 315.31-7L315.31-7Q314.56-5.65 312.61-3.55 310.66-1.45 308.81-0.15L308.81-0.15Q307.01 1.25 304.91 1.25ZM316.56 0.55L316.56 0.55Q315.76 0.55 314.83 0.08 313.91-0.4 313.26-1.28 312.61-2.15 312.61-3.15 312.61-4.15 313.06-5.05L313.06-5.05Q314.06-7.15 316.29-9.13 318.51-11.1 320.91-12.5 323.31-13.9 324.71-14.25 326.11-14.6 327.44-14.6 328.76-14.6 329.71-13.93 330.66-13.25 330.66-12.5L330.66-12.5Q330.66-12.25 330.61-12.2 330.56-12.15 330.36-12.25L330.36-12.25Q329.76-13.2 327.88-13.2 326.01-13.2 323.63-11.98 321.26-10.75 319.16-8.9L319.16-8.9Q317.41-7.25 316.08-5.18 314.76-3.1 314.76-2.15L314.76-2.15Q314.76-0.3 315.81-0.3 316.86-0.3 319.01-2L319.01-2Q322.56-5 323.86-6.4L323.86-6.4Q328.46-11.35 328.81-11.35L328.81-11.35Q329.41-11.35 330.26-11 331.11-10.65 330.81-10.15L330.81-10.15Q328.26-6.55 327.81-2.9L327.81-2.9Q327.76-2.45 327.76-1.75 327.76-1.05 328.16-0.6L328.16-0.6Q328.91 0.2 330.21-0.5 331.51-1.2 333.83-3.3 336.16-5.4 337.56-7.4L337.56-7.4Q337.76-7.65 338.01-7.53 338.26-7.4 338.26-7.3L338.26-7.3Q338.26-6.55 335.88-4.03 333.51-1.5 332.26-0.6L332.26-0.6Q329.91 1.15 327.91 1.15L327.91 1.15Q326.01 1.15 325.36-0.75L325.36-0.75Q325.21-1.35 325.21-2.1L325.21-2.1Q325.21-4.35 326.16-6.85L326.16-6.85Q325.96-6.75 324.31-4.85 322.66-2.95 320.49-1.2 318.31 0.55 316.56 0.55ZM344.26-13.95L344.91-14Q348.76-14.35 349.58-14.35 350.41-14.35 350.41-14.1L350.41-14.1Q350.41-13.8 349.23-13.48 348.06-13.15 343.51-12.65L343.51-12.65Q343.26-12.2 342.91-11.6L342.91-11.6Q342.16-10.4 342.11-10.15L342.11-10.15Q339.26-4.45 339.11-2.9L339.11-2.9Q339.06-2.45 339.06-1.75 339.06-1.05 339.46-0.6L339.46-0.6Q340.16 0.2 341.46-0.5 342.76-1.2 345.08-3.3 347.41-5.4 348.86-7.4L348.86-7.4Q349.06-7.65 349.36-7.5L349.36-7.5Q350.11-7.15 346.76-3.55L346.76-3.55Q343.56-0.1 341.41 0.7L341.41 0.7Q340.16 1.15 339.31 1.15L339.31 1.15Q337.31 1.15 336.66-0.75L336.66-0.75Q336.56-1.1 336.56-1.6L336.56-1.6Q336.56-3.35 338.16-6.9L338.16-6.9Q337.91-6.35 336.21-4.4L336.21-4.4Q335.76-3.9 335.51-4.4L335.51-4.4Q335.46-4.5 335.46-4.67 335.46-4.85 335.66-5.1L335.66-5.1Q338.11-8.15 339.51-10.25L339.51-10.25Q339.51-10.3 340.61-12.35L340.61-12.35Q340.11-12.25 339.58-12.25 339.06-12.25 338.81-12.58 338.56-12.9 338.76-13.35L338.76-13.35Q339.11-14.15 341.41-14.25L341.41-14.25Q341.46-14.35 341.61-14.35L341.61-14.35 344.11-19Q344.31-19.4 344.56-19.83 344.81-20.25 344.93-20.48 345.06-20.7 345.21-20.95 345.36-21.2 345.46-21.3 345.56-21.4 345.66-21.5L345.66-21.5Q345.86-21.8 346.83-21.8 347.81-21.8 348.16-21.25L348.16-21.25Q348.31-21.05 348.31-20.58 348.31-20.1 347.96-19.53 347.61-18.95 347.21-18.7 346.81-18.45 346.66-18.15L346.66-18.15 344.26-13.95ZM358.56-5.5L358.56-5.5Q359.46-7.35 359.46-8.35 359.46-9.35 359.23-9.93 359.01-10.5 359.43-10.9 359.86-11.3 360.51-11.2L360.51-11.2Q361.51-10.95 361.51-8.95 361.51-6.95 359.16-3.7L359.16-3.7Q359.21-2.35 360.56-2.35 361.91-2.35 364.66-5.25L364.66-5.25Q365.96-6.75 366.28-7.2 366.61-7.65 366.86-7.53 367.11-7.4 367.11-7.3L367.11-7.3Q367.11-6.8 365.31-4.7L365.31-4.7Q362.46-1.2 360.26-1.2L360.26-1.2Q358.81-1.2 358.21-2.45L358.21-2.45Q357.21-1.4 356.26-0.5L356.26-0.5Q354.31 1.15 351.91 1.15L351.91 1.15Q350.56 1.15 349.66 0.5L349.66 0.5Q347.91-0.55 347.91-3.25L347.91-3.25Q347.91-6.2 349.91-9.25L349.91-9.25Q351.06-11.05 352.61-12.4L352.61-12.4Q355.06-14.55 357.26-14.55L357.26-14.55Q357.81-14.55 358.31-14.4L358.31-14.4Q359.81-13.9 359.81-12.5L359.81-12.5Q359.81-11.35 359.21-11.35L359.21-11.35Q358.96-11.45 358.96-12.1L358.96-12.1Q358.96-13 357.96-13L357.96-13Q356.21-13 353.46-9.8 350.71-6.6 350.16-3.35L350.16-3.35Q350.06-2.8 350.06-2.13 350.06-1.45 350.51-0.58 350.96 0.3 352.18 0.3 353.41 0.3 354.86-0.8 356.31-1.9 357.46-3.6L357.46-3.6 357.31-3.9Q357.11-4.7 357.51-5.2 357.91-5.7 358.56-5.5ZM372.35 1.25L372.35 1.25Q369.8 1.25 369.8-1.83 369.8-4.9 374.2-9.4L374.2-9.4Q374.55-9.75 374.7-9.95L374.7-9.95 375.05-10.45Q375.75-11.4 375.7-11.65L375.7-11.65 375.55-12.1Q375.35-12.7 373.9-12.98 372.45-13.25 371.55-13.25L371.55-13.25Q367.05-6.9 366.35-6 365.65-5.1 365.4-5.25 365.15-5.4 365.15-5.6 365.15-5.8 365.45-6.2L365.45-6.2Q368.15-9.5 370.1-13.25L370.1-13.25Q369.5-13.35 369.2-13.68 368.9-14 369.15-14.78 369.4-15.55 370.68-16.85 371.95-18.15 372.9-18.6 373.85-19.05 374.1-19.15 374.35-19.25 374.65-19.25L374.65-19.25Q375.25-19.25 374.25-17.45L374.25-17.45 372.3-14.35Q374.55-14.2 376.15-14.2L376.15-14.2 377.9-14.25Q378.75-14.25 379.15-14.03 379.55-13.8 379.35-13.25L379.35-13.25Q379-12.3 377.6-10.7L377.6-10.7Q374.6-7.2 373.1-3.25L373.1-3.25Q372.75-2.3 372.75-1.6L372.75-1.6Q372.75-0.15 373.8-0.15L373.8-0.15Q374.15-0.15 375.13-0.7 376.1-1.25 378.4-3.33 380.7-5.4 382.1-7.4L382.1-7.4Q382.3-7.65 382.58-7.53 382.85-7.4 382.85-7.28 382.85-7.15 382.75-7L382.75-7Q382-5.65 380.05-3.55 378.1-1.45 376.25-0.15L376.25-0.15Q374.45 1.25 372.35 1.25Z" opacity="1" transform="matrix(1,0,0,1,0,0)" fill="#111111" class="wordmark-text-0" data-fill-palette-color="primary" id="text-0"></path></svg></g></svg></g><g transform="matrix(1,0,0,1,0,62.27037625898784)"><svg viewBox="0 0 232.209792 16.65428833426664" height="16.65428833426664" width="232.209792"><g transform="matrix(1,0,0,1,0,0)"><svg width="232.209792" viewBox="3 -37.79999923706055 696.3800048828125 49.94999694824219" height="16.65428833426664" data-palette-color="url(#38a077e1-3464-47c3-af2b-5875083f9894)"></svg></g></svg></g></svg></g></svg></g><g><svg viewBox="0 0 244.43135999999998 244.43135999999998" height="244.43135999999998" width="244.43135999999998"><g><svg viewBox="0 0 244.43135999999998 244.43135999999998" height="244.43135999999998" width="244.43135999999998"><g transform="matrix(1,0,0,1,64.60265593644993,64.69775599451165)"><svg viewBox="0 0 115.22604812710013 115.03584801097666" height="115.03584801097666" width="115.22604812710013"><g><svg xmlns="http://www.w3.org/2000/svg" xmlns:xlink="http://www.w3.org/1999/xlink" version="1.1" x="0" y="0" viewBox="0 0.20499849319458008 99.95999908447266 99.79499816894531" enable-background="new 0 0 100 100" xml:space="preserve" height="115.03584801097666" width="115.22604812710013" class="icon-s-0" data-fill-palette-color="accent" id="s-0"><g fill="#001f3f" data-fill-palette-color="accent"><circle cx="49.98" cy="50.02" r="8.3" fill="#001f3f" data-fill-palette-color="accent"></circle><path d="M57.492 7.246c0 3.889-3.152 26.404-7.041 26.404-3.888 0-7.041-22.516-7.041-26.404s3.153-7.041 7.041-7.041C54.34 0.205 57.492 3.357 57.492 7.246z" fill="#001f3f" data-fill-palette-color="accent"></path><path d="M43.41 92.958c0-3.889 3.153-26.403 7.041-26.403 3.889 0 7.041 22.515 7.041 26.403S54.34 100 50.451 100C46.563 100 43.41 96.847 43.41 92.958z" fill="#001f3f" data-fill-palette-color="accent"></path><path d="M85.757 24.872c-2.791 2.707-21.142 16.131-23.849 13.341-2.708-2.79 11.248-20.736 14.038-23.445 2.79-2.707 7.249-2.643 9.956 0.148C88.612 17.705 88.546 22.163 85.757 24.872z" fill="#001f3f" data-fill-palette-color="accent"></path><path d="M14.773 75.181c2.79-2.708 21.14-16.129 23.849-13.342 2.707 2.792-11.249 20.736-14.039 23.445-2.789 2.71-7.247 2.645-9.955-0.146C11.919 82.348 11.985 77.892 14.773 75.181z" fill="#001f3f" data-fill-palette-color="accent"></path><path d="M74.163 86.315c-2.63-2.866-15.548-21.574-12.685-24.207C64.342 59.479 81.9 73.92 84.53 76.785c2.633 2.861 2.445 7.316-0.416 9.947C81.25 89.364 76.797 89.177 74.163 86.315z" fill="#001f3f" data-fill-palette-color="accent"></path><path d="M24.717 14.668c2.716 2.781 16.189 21.094 13.407 23.809-2.781 2.717-20.767-11.188-23.483-13.973-2.717-2.779-2.664-7.239 0.12-9.957C17.542 11.832 22.002 11.885 24.717 14.668z" fill="#001f3f" data-fill-palette-color="accent"></path><path d="M7.041 42.756c3.89 0 26.403 3.154 26.403 7.042 0 3.889-22.514 7.042-26.403 7.042C3.153 56.84 0 53.687 0 49.798 0 45.91 3.153 42.756 7.041 42.756z" fill="#001f3f" data-fill-palette-color="accent"></path><path d="M92.918 57.059c-3.889 0-26.402-3.15-26.402-7.039s22.514-7.041 26.402-7.041c3.89 0 7.042 3.152 7.042 7.041S96.808 57.059 92.918 57.059z" fill="#001f3f" data-fill-palette-color="accent"></path></g></svg></g></svg></g><g><path d="M33.178 70.785v0c-0.269 0.643-0.753 0.991-1.451 1.043-0.692 0.055-1.482-0.103-2.37-0.474-0.888-0.372-2.023-1.07-3.407-2.096v0c-0.369 0.709-1.036 1.89-2.001 3.544v0c2.372 4.404 3.858 7.857 4.457 10.359v0c0.541 2.162 0.44 4.13-0.303 5.906v0c-0.472 1.126-1.157 1.973-2.056 2.539-0.901 0.572-1.906 0.626-3.014 0.162v0c-0.208-0.087-0.378-0.223-0.509-0.407-0.134-0.178-0.136-0.302-0.008-0.37 0.123-0.071 0.384-0.023 0.782 0.143v0c0.71 0.297 1.358 0.245 1.944-0.157 0.586-0.402 1.045-1.001 1.378-1.797v0c0.715-1.708 0.863-3.624 0.444-5.75-0.426-2.128-1.665-5.302-3.719-9.521v0c-1.664 2.908-2.7 4.852-3.111 5.831v0c-1.11 2.651-0.929 4.651 0.542 6v0c0.197 0.183 0.393 0.316 0.589 0.398 0.196 0.082 0.391 0.114 0.586 0.094 0.186-0.015 0.318 0.022 0.396 0.112 0.069 0.094 0.071 0.199 0.008 0.316-0.06 0.126-0.171 0.202-0.333 0.228v0c-0.495 0.066-0.93 0.021-1.303-0.136v0c-1.292-0.541-2.148-1.176-2.569-1.906-0.415-0.728-0.577-1.44-0.487-2.136v0c0.107-0.84 0.37-1.759 0.787-2.757 0.42-1.004 1.875-3.362 4.366-7.075v0c-0.82-1.667-2.185-4.25-4.095-7.747-1.91-3.498-2.883-5.254-2.92-5.27v0l0.012-0.027c-0.014-0.035-0.026-0.101-0.036-0.199v0c-0.078-0.622 0.007-1.227 0.253-1.815v0c0.087-0.208 0.235-0.269 0.443-0.181v0c0.018 0.008 0.038 0.03 0.058 0.067 0.023 0.031 0.057 0.071 0.102 0.118 0.041 0.039 0.08 0.076 0.114 0.113v0c2.477 3.397 5.56 6.515 9.25 9.355v0l0.181 0.184 0.364-0.765c0.088-0.158 0.221-0.451 0.4-0.879 0.179-0.428 0.271-0.922 0.276-1.482-0.002-0.562-0.087-0.961-0.255-1.197-0.176-0.232-0.178-0.373-0.006-0.423 0.166-0.053 0.305-0.006 0.416 0.141v0c0.321 0.401 0.454 0.935 0.397 1.602v0c0.001 0.583-0.103 1.122-0.31 1.618-0.205 0.49-0.338 0.808-0.4 0.955v0l-0.381 0.834c1.648 1.15 3.011 1.951 4.087 2.402 1.071 0.449 1.729 0.382 1.973-0.2v0c0.236-0.563 0.152-1.627-0.251-3.191-0.394-1.568-1.083-3.169-2.067-4.805v0c-0.054-0.095-0.041-0.186 0.039-0.274 0.086-0.086 0.16-0.116 0.222-0.091 0.067 0.028 0.141 0.077 0.219 0.146 0.079 0.069 0.247 0.33 0.504 0.782v0c0.803 1.365 1.458 2.902 1.965 4.611v0c0.344 1.223 0.28 2.398-0.192 3.525zM18.163 62.469v0c-0.035-0.036-0.083-0.085-0.144-0.147-0.058-0.067-0.105-0.119-0.14-0.155v0c2.477 4.102 4.354 7.352 5.631 9.749v0l1.909-3.064c-2.028-1.532-4.446-3.66-7.256-6.383z" fill="#001f3f" data-fill-palette-color="accent"></path><path d="M35.869 60.036v0l0.494 0.299c0.136 0.082 0.294 0.321 0.474 0.716 0.182 0.405 0.239 0.664 0.171 0.777v0c-0.388 0.642-0.738 0.869-1.051 0.68v0c-0.153-0.093-0.265-0.428-0.335-1.004v0c-0.1-0.797-0.113-1.258-0.037-1.383 0.075-0.125 0.17-0.153 0.284-0.085z" fill="#001f3f" data-fill-palette-color="accent"></path><path d="M33.452 50.088v0c0.345-0.455 0.694-0.619 1.048-0.492v0c0.192 0.087 0.333 0.231 0.422 0.432 0.093 0.196 0.171 0.346 0.233 0.451 0.062 0.105 0.113 0.186 0.154 0.241v0c0.112 0.226 0.216 0.446 0.311 0.661v0c1.281 2.585 2.177 4.117 2.688 4.596v0c0.152 0.14 0.355 0.306 0.609 0.498 0.249 0.188 0.509 0.273 0.781 0.255v0c0.483-0.034 0.774-0.379 0.873-1.037 0.103-0.663 0.094-1.702-0.025-3.116-0.123-1.409-0.347-2.648-0.669-3.717v0c-0.038-0.137 0-0.237 0.115-0.3 0.116-0.054 0.195-0.065 0.237-0.032 0.048 0.036 0.084 0.093 0.108 0.169v0c0.282 0.638 0.535 1.596 0.759 2.873v0c0.37 2.095 0.406 3.641 0.108 4.639v0c-0.182 0.57-0.389 1.008-0.621 1.315v0c-0.545 0.719-1.249 0.94-2.112 0.661v0c-0.155-0.059-0.322-0.157-0.502-0.293v0c-0.63-0.477-1.364-1.491-2.204-3.042v0c0.124 0.243 0.307 0.936 0.55 2.077v0c0.056 0.3-0.041 0.427-0.289 0.381v0c-0.053-0.007-0.111-0.034-0.174-0.083-0.063-0.048-0.112-0.143-0.146-0.285v0c-0.431-1.717-0.833-3.116-1.205-4.197v0c-0.118-0.031-0.222-0.135-0.313-0.312v0c-0.734-1.13-1.025-1.85-0.874-2.16v0c0.04-0.053 0.086-0.114 0.138-0.183zM31.48 45.223v0l0.697 0.878c0.159 0.12 0.332 0.435 0.521 0.944 0.183 0.505 0.227 0.821 0.131 0.948v0c-0.589 0.778-1.074 1.022-1.455 0.734v0c-0.069-0.052-0.108-0.693-0.116-1.924v0l-0.001-0.725c-0.038-0.478-0.028-0.754 0.028-0.828 0.056-0.074 0.121-0.083 0.195-0.027z" fill="#001f3f" data-fill-palette-color="accent"></path><path d="M45.778 47.318v0l0.442 0.372c0.122 0.102 0.241 0.363 0.357 0.782 0.117 0.428 0.133 0.693 0.048 0.794v0c-0.483 0.574-0.864 0.744-1.143 0.509v0c-0.137-0.115-0.196-0.464-0.176-1.045v0c0.025-0.803 0.084-1.26 0.178-1.372 0.094-0.112 0.192-0.125 0.294-0.04z" fill="#001f3f" data-fill-palette-color="accent"></path><path d="M50.998 26.367v0c0.213 0.289 0.477 0.485 0.793 0.591 0.316 0.105 0.572 0.156 0.768 0.152v0c0.373-0.019 0.833-0.078 1.379-0.176v0c0.341 0.004 0.464 0.07 0.369 0.199v0c-0.059 0.043-0.131 0.08-0.216 0.109v0c-0.505 0.232-1.165 0.31-1.98 0.234-0.814-0.076-1.439-0.387-1.873-0.932v0c-0.203-0.164-0.358-0.318-0.464-0.462v0c-0.575-0.78-0.75-1.706-0.525-2.778v0c0.455-1.934 2.013-3.881 4.674-5.841v0c-0.051-0.069-0.091-0.18-0.121-0.331v0c-0.124-0.247 0.079-0.565 0.608-0.955v0c0.454-0.335 0.751-0.384 0.891-0.149v0c0.037 0.195 0.078 0.346 0.124 0.453v0c1.225-0.787 2.376-1.267 3.451-1.441v0c0.351-0.061 0.652-0.043 0.903 0.051 0.251 0.095 0.405 0.18 0.46 0.255v0c0.118 0.16-0.237 0.372-1.065 0.636-0.837 0.262-1.937 0.895-3.3 1.898v0c0.193 0.452 0.588 1.648 1.186 3.591 0.607 1.943 0.973 3.157 1.099 3.641 0.131 0.48 0.313 1.146 0.544 1.997 0.241 0.853 0.413 1.563 0.517 2.129 0.109 0.562 0.23 1.203 0.363 1.921v0c0.219 1.215 0.319 2.436 0.299 3.662v0c-0.07 0.867-0.156 1.479-0.257 1.833v0c0.31-0.228 0.911-0.671 1.804-1.328 0.892-0.657 1.657-1.258 2.295-1.802 0.642-0.539 1.014-0.805 1.118-0.798 0.103 0.006 0.156 0.066 0.158 0.18v0c0.022 0.264-0.021 0.514-0.128 0.75-0.111 0.23-1.386 1.301-3.827 3.214-2.435 1.909-3.962 3.091-4.583 3.547-0.62 0.457-1.066 0.785-1.338 0.986v0c-0.438 0.29-0.771 0.279-0.999-0.03v0c-0.118-0.16-0.229-0.429-0.334-0.806v0c-0.088-0.388 0.023-0.758 0.332-1.11 0.315-0.356 0.706-0.524 1.174-0.505v0c0.787 0.039 1.415-0.115 1.885-0.462 0.476-0.35 0.898-0.801 1.266-1.352 0.368-0.552 0.565-1.343 0.588-2.374v0c0.027-3.053-1.476-8.333-4.509-15.842v0c-1.566 1.376-2.708 2.741-3.426 4.093-0.714 1.358-0.748 2.476-0.103 3.352z" fill="#001f3f" data-fill-palette-color="accent"></path><path d="M66.737 21.734v0c0.074 0.141 0.122 0.505 0.145 1.093 0.029 0.584 0.246 2.53 0.653 5.838v0c0.256-1.257 0.633-2.755 1.131-4.492v0c1.003-3.492 1.925-5.458 2.766-5.898v0c0.182-0.095 0.385-0.138 0.608-0.127 0.223 0.011 0.427 0.192 0.611 0.545 0.185 0.353 0.278 0.802 0.279 1.349 0.007 0.543 0.033 1.2 0.077 1.971 0.044 0.771 0.058 1.262 0.041 1.473v0c0.89-2.406 1.678-3.999 2.364-4.777 0.689-0.788 1.171-1.254 1.448-1.399 0.282-0.148 0.476-0.122 0.58 0.078v0c0.065 0.123 0.067 0.493 0.008 1.109-0.057 0.621-0.029 1.476 0.083 2.563 0.106 1.09 0.235 1.829 0.384 2.215 0.152 0.377 0.303 0.707 0.451 0.989 0.145 0.276 0.344 0.464 0.598 0.563v0c0.469 0.166 0.891-0.029 1.267-0.585 0.37-0.553 0.802-1.495 1.296-2.825 0.489-1.327 0.806-2.538 0.952-3.633v0c0.024-0.14 0.104-0.216 0.241-0.227 0.139-0.006 0.221 0.015 0.246 0.062 0.028 0.053 0.036 0.12 0.026 0.2v0c-0.017 0.698-0.196 1.672-0.538 2.922v0c-0.558 2.053-1.185 3.467-1.88 4.243v0c-0.774 0.81-1.436 1.205-1.986 1.186-0.544-0.022-0.944-0.157-1.2-0.405-0.257-0.248-0.464-0.521-0.621-0.821v0c-0.493-0.941-0.8-1.978-0.922-3.113-0.122-1.135-0.164-1.929-0.125-2.385v0c-0.592 0.715-1.032 1.455-1.321 2.22v0c-0.444 1.154-0.775 2.132-0.991 2.935v0l-0.254 0.976c0.049 0.536-0.138 0.952-0.56 1.248-0.416 0.293-0.709 0.255-0.879-0.113v0c-0.159-0.404-0.235-1.45-0.228-3.139 0.007-1.689-0.028-2.607-0.105-2.754-0.08-0.153-0.199-0.188-0.358-0.105v0c-0.359 0.188-0.793 0.939-1.303 2.255v0c-0.318 0.908-0.661 2.485-1.029 4.73-0.368 2.245-0.608 3.461-0.72 3.647v0c-0.526 0.74-0.881 1.158-1.063 1.253-0.182 0.095-0.29 0.111-0.324 0.047-0.031-0.059-0.045-0.164-0.041-0.316-0.006-0.154-0.31-2.216-0.913-6.185v0c-0.084 0.913-0.211 1.642-0.382 2.189v0c-0.063 0.265-0.161 0.272-0.294 0.019-0.132-0.253-0.174-0.504-0.125-0.755v0c0.281-1.653 0.417-3.001 0.41-4.046v0c-0.249-0.761-0.226-1.297 0.068-1.609v0c0.183-0.193 0.439-0.327 0.767-0.402 0.337-0.072 0.558-0.007 0.662 0.193z" fill="#001f3f" data-fill-palette-color="accent"></path><path d="M86.375 22.28v0c-0.348 0.11-0.753 0.126-1.216 0.05-0.463-0.077-0.893-0.261-1.292-0.553-0.405-0.29-0.675-0.65-0.81-1.08-0.136-0.43-0.167-0.87-0.092-1.318v0c0.145-1.041 0.563-2.14 1.255-3.298 0.692-1.158 1.459-2.2 2.301-3.127 0.848-0.929 1.549-1.564 2.103-1.905 0.56-0.344 1.124-0.605 1.693-0.786 0.57-0.18 1.106-0.189 1.61-0.027 0.503 0.161 0.806 0.403 0.907 0.726v0c0.034 0.108 0.041 0.175 0.022 0.202-0.011 0.031-0.068 0.039-0.17 0.022v0c-0.389-0.329-0.986-0.367-1.79-0.114-0.81 0.256-1.644 0.811-2.501 1.667-0.859 0.849-1.616 1.815-2.269 2.897v0c-0.527 0.953-0.938 1.966-1.233 3.041-0.286 1.078-0.365 1.82-0.237 2.225v0c0.254 0.804 0.608 1.134 1.064 0.99 0.449-0.142 1.023-0.727 1.722-1.754v0c1.122-1.781 1.867-3.06 2.234-3.837v0c1.312-2.766 2.044-4.173 2.196-4.221v0c0.259-0.082 0.597-0.105 1.012-0.069 0.409 0.038 0.584 0.185 0.525 0.44v0c-0.61 1.904-0.762 3.671-0.457 5.301v0c0.037 0.204 0.103 0.458 0.199 0.761 0.094 0.297 0.257 0.517 0.49 0.66v0c0.439 0.244 0.889 0.127 1.35-0.353 0.467-0.482 1.058-1.333 1.772-2.553 0.721-1.223 1.246-2.359 1.576-3.41v0c0.055-0.136 0.144-0.195 0.267-0.178 0.126 0.023 0.194 0.053 0.206 0.092v0c0.104 0.329-0.185 1.2-0.867 2.611-0.682 1.412-1.231 2.396-1.646 2.952v0c-0.775 1.073-1.596 1.746-2.463 2.02v0c-0.816 0.258-1.493 0.022-2.029-0.707v0c-0.151-0.237-0.278-0.518-0.38-0.84v0c-0.308-0.975-0.425-2.065-0.354-3.271v0c-0.075 0.072-0.338 0.628-0.788 1.669-0.449 1.046-1.026 2.095-1.732 3.146-0.699 1.049-1.425 1.692-2.178 1.929z" fill="#001f3f" data-fill-palette-color="accent"></path><path d="M100.696 30.688v0c-0.177 0.026-0.405 0.025-0.684-0.001v0c-1.185-0.124-1.843-0.638-1.974-1.545-0.131-0.906 0.292-2.128 1.27-3.664 0.978-1.536 3.177-3.833 6.596-6.889v0c1.139-3.524 1.881-6.294 2.227-8.309v0c-1.034 1.705-1.778 2.889-2.232 3.552v0c-1.686 2.524-3.147 3.876-4.382 4.054v0c-0.355 0.051-0.754 0.002-1.198-0.148-0.444-0.15-0.843-0.401-1.195-0.753-0.346-0.352-0.551-0.752-0.616-1.198v0c-0.171-1.182 0.464-2.632 1.905-4.349v0c0.855-1.042 1.776-1.954 2.762-2.734 0.98-0.779 1.774-1.293 2.382-1.542 0.601-0.248 1.194-0.414 1.779-0.499 0.578-0.084 1.113 0 1.605 0.251 0.498 0.243 0.77 0.522 0.815 0.837v0c0.026 0.177-0.058 0.246-0.251 0.208v0c-0.305-0.392-0.878-0.527-1.719-0.405-0.841 0.122-1.753 0.535-2.737 1.241-0.985 0.699-1.847 1.484-2.586 2.356-0.744 0.879-1.344 1.834-1.798 2.865-0.453 1.038-0.647 1.78-0.582 2.227v0c0.114 0.788 0.394 1.15 0.841 1.085v0c0.624-0.09 1.511-0.745 2.662-1.965v0c1.708-1.776 3.289-3.869 4.744-6.279v0c0.235-0.463 0.841-0.537 1.818-0.223v0c0.387 0.125 0.558 0.261 0.512 0.409v0c-0.202 0.686-0.572 1.887-1.108 3.6-0.543 1.715-0.947 3-1.212 3.857v0c0.481-0.338 1.263-1.142 2.347-2.412 1.084-1.263 2.017-2.512 2.797-3.744v0c0.408-0.656 0.641-0.78 0.7-0.373v0c0.081 0.558-1.048 2.231-3.387 5.017v0c-1.343 1.609-2.314 2.638-2.913 3.087v0c-1.33 4.196-2.248 6.843-2.752 7.942v0c-1.322 2.726-2.801 4.208-4.436 4.444zM105.449 19.962v0c-2.394 2.405-4.088 4.28-5.08 5.624-0.993 1.337-1.415 2.522-1.266 3.553v0c0.046 0.315 0.18 0.524 0.403 0.625 0.217 0.109 0.437 0.148 0.66 0.116 0.223-0.032 0.524-0.247 0.903-0.644 0.378-0.397 0.695-0.781 0.949-1.153 0.256-0.366 0.474-0.706 0.657-1.021 0.183-0.308 0.384-0.703 0.603-1.183 0.213-0.473 0.38-0.846 0.502-1.119 0.122-0.266 0.287-0.682 0.493-1.248 0.2-0.565 0.338-0.951 0.416-1.157 0.071-0.205 0.205-0.62 0.403-1.245 0.191-0.624 0.31-1.007 0.357-1.148z" fill="#001f3f" data-fill-palette-color="accent"></path><path d="M121.962 5.438v0c1.221-0.036 1.848 0.533 1.882 1.707v0c0.018 0.61-0.137 1.113-0.463 1.508v0c-0.546 0.859-1.443 1.616-2.692 2.27-1.242 0.661-2.303 1.037-3.184 1.129v0c-0.318 0.036-0.489-0.049-0.515-0.254v0c-0.029-0.092-0.004-0.149 0.074-0.171 0.079-0.029 0.141-0.044 0.188-0.046v0c0.516-0.055 1.176-0.32 1.979-0.795v0c1.488-0.86 2.572-1.732 3.249-2.615v0c0.28-0.413 0.415-0.806 0.404-1.177-0.011-0.378-0.196-0.562-0.554-0.551v0c-0.299 0.009-0.693 0.146-1.183 0.413v0c-1.047 0.529-2.139 1.427-3.277 2.696-1.138 1.262-1.872 2.488-2.202 3.679v0c-0.102 0.362-0.148 0.718-0.138 1.07 0.01 0.352 0.169 0.682 0.477 0.992 0.301 0.303 0.757 0.446 1.367 0.428v0c0.677-0.02 1.451-0.222 2.322-0.606v0c2.523-1.116 4.444-2.746 5.762-4.89v0c0.127-0.183 0.249-0.22 0.366-0.11v0c0.094 0.044 0.142 0.099 0.144 0.165 0.002 0.066-0.029 0.147-0.093 0.241v0c-0.643 1.148-1.473 2.178-2.488 3.091v0c-1.959 1.777-3.891 2.694-5.795 2.75v0c-1.625 0.048-2.78-0.406-3.466-1.363v0c-0.257-0.371-0.393-0.828-0.409-1.372-0.016-0.544 0.111-1.195 0.381-1.953v0c0.526-1.303 1.698-2.659 3.516-4.067 1.811-1.414 3.26-2.137 4.348-2.169z" fill="#001f3f" data-fill-palette-color="accent"></path><path d="M143.691 18.284v0c-0.717-0.02-1.418-0.108-2.104-0.264v0c-2.226-0.507-3.826-1.626-4.8-3.359v0c-0.675-1.222-0.834-2.616-0.477-4.182v0c0.767-3.371 2.994-6.111 6.679-8.219v0c4.079-2.25 8.557-2.82 13.437-1.71v0c1.385 0.315 2.525 0.854 3.419 1.616v0c0.715 0.626 0.972 1.382 0.77 2.268v0c-0.084 0.369-0.241 0.551-0.471 0.546v0c-0.299 0-0.417-0.2-0.353-0.601v0c0.247-1.475-0.71-2.459-2.871-2.95v0c-0.971-0.221-2.221-0.257-3.753-0.109-1.533 0.155-3.159 0.499-4.88 1.033-1.721 0.534-3.367 1.187-4.938 1.959-1.563 0.767-2.922 1.727-4.076 2.88-1.161 1.152-1.894 2.4-2.2 3.746-0.306 1.346-0.071 2.482 0.705 3.407 0.775 0.932 1.845 1.553 3.21 1.864v0c1.501 0.342 3.305 0.473 5.413 0.395v0c1.175-0.08 2.33-0.31 3.465-0.691 1.127-0.376 2.009-0.737 2.645-1.083v0c1.18-0.609 2.394-1.306 3.641-2.091v0c0.837-1.225 1.886-1.81 3.146-1.754v0c0.532 0.026 1.085 0.152 1.66 0.378v0l0.372 0.156c0.19 0.091 0.278 0.169 0.264 0.233v0c-0.05 0.22-0.215 0.285-0.494 0.194v0c-0.026-0.006-0.049-0.011-0.067-0.015v0c-1.191-0.271-2.425 0.622-3.704 2.679v0c-1.002 1.65-1.929 3.121-2.78 4.41v0c1.232 0.001 2.032 0.044 2.401 0.128 0.375 0.085 0.63 0.191 0.765 0.317 0.136 0.119 0.143 0.223 0.021 0.311-0.129 0.086-0.236 0.096-0.323 0.029-0.088-0.061-0.259-0.12-0.511-0.177-0.259-0.059-0.778-0.079-1.559-0.059-0.78 0.02-1.275 0.19-1.484 0.509v0c-3.476 5.076-7.029 8.351-10.659 9.825v0c-1.632 0.65-3.001 0.848-4.107 0.597v0c-0.414-0.094-0.793-0.252-1.138-0.474v0c-0.93-0.607-1.268-1.47-1.013-2.589v0c0.306-1.346 1.336-2.656 3.09-3.931v0c3.392-2.495 7.586-3.963 12.58-4.406v0c0.972-1.61 1.897-3.22 2.773-4.83v0c-4.796 2.829-8.694 4.167-11.694 4.014zM138.834 27.378v0c-0.054 0.239-0.077 0.489-0.069 0.75v0c0.024 0.911 0.479 1.467 1.366 1.669v0c1.301 0.296 2.865-0.267 4.693-1.689v0c2.749-2.178 5.222-4.988 7.421-8.428v0c-4.149 0.376-7.667 1.719-10.555 4.03v0c-1.638 1.274-2.59 2.497-2.856 3.668z" fill="#001f3f" data-fill-palette-color="accent"></path><path d="M171.298 16.803v0c1.111 0.507 1.422 1.295 0.935 2.363v0c-0.253 0.555-0.614 0.938-1.081 1.148v0c-0.869 0.53-2.008 0.812-3.418 0.847-1.406 0.044-2.524-0.087-3.355-0.393v0c-0.301-0.108-0.418-0.26-0.35-0.455v0c0.014-0.096 0.062-0.136 0.142-0.121 0.083 0.009 0.146 0.023 0.189 0.042v0c0.487 0.179 1.196 0.232 2.126 0.161v0c1.715-0.114 3.072-0.418 4.07-0.911v0c0.434-0.247 0.728-0.54 0.882-0.878 0.157-0.344 0.073-0.591-0.253-0.739v0c-0.272-0.124-0.686-0.175-1.244-0.152v0c-1.173 0.012-2.549 0.336-4.13 0.971-1.578 0.629-2.779 1.405-3.602 2.329v0c-0.251 0.279-0.45 0.579-0.596 0.898-0.146 0.32-0.149 0.687-0.01 1.101 0.136 0.405 0.482 0.734 1.038 0.988v0c0.616 0.281 1.4 0.442 2.351 0.482v0c2.757 0.113 5.2-0.501 7.329-1.842v0c0.195-0.108 0.321-0.087 0.377 0.062v0c0.065 0.081 0.084 0.151 0.056 0.212-0.028 0.06-0.091 0.119-0.19 0.176v0c-1.084 0.745-2.283 1.303-3.597 1.674v0c-2.543 0.729-4.681 0.698-6.414-0.093v0c-1.479-0.675-2.315-1.593-2.508-2.753v0c-0.066-0.446 0.013-0.917 0.24-1.412 0.226-0.495 0.627-1.023 1.204-1.584v0c1.048-0.937 2.698-1.636 4.95-2.096 2.249-0.469 3.869-0.478 4.859-0.025z" fill="#001f3f" data-fill-palette-color="accent"></path><path d="M183.5 24.212v0c0.439 0.275 0.51 0.648 0.214 1.12-0.292 0.467-0.917 0.976-1.873 1.529-0.959 0.543-1.704 1.008-2.237 1.394v0c-0.919 0.654-1.544 1.245-1.874 1.774-0.328 0.523-0.47 0.919-0.428 1.189v0c0.099 0.493 0.484 0.753 1.155 0.782 0.673 0.038 1.704-0.064 3.093-0.306 1.391-0.233 2.593-0.564 3.606-0.994v0c0.139-0.046 0.247-0.013 0.326 0.098 0.07 0.114 0.09 0.194 0.062 0.239-0.032 0.051-0.085 0.092-0.159 0.123v0c-0.611 0.338-1.542 0.674-2.794 1.01-1.252 0.336-2.374 0.533-3.367 0.593-0.998 0.056-1.832-0.126-2.501-0.545v0c-0.642-0.426-1.01-0.863-1.104-1.314-0.092-0.441-0.005-0.873 0.259-1.295 0.264-0.422 0.556-0.807 0.876-1.154 0.325-0.344 0.754-0.71 1.287-1.097v0c0.867-0.608 1.572-1.059 2.116-1.353 0.548-0.299 0.867-0.522 0.958-0.668 0.088-0.141 0.053-0.26-0.104-0.359v0c-0.304-0.19-1.123-0.183-2.457 0.023v0c-0.939 0.187-2.471 0.688-4.595 1.503-2.129 0.812-3.3 1.218-3.512 1.218v0c-0.91-0.085-1.45-0.18-1.618-0.285-0.174-0.109-0.242-0.195-0.204-0.257 0.035-0.056 0.106-0.125 0.213-0.208 0.103-0.077 0.614-0.481 1.534-1.211 0.926-0.728 1.938-1.531 3.036-2.409 1.095-0.873 1.757-1.398 1.986-1.576 0.229-0.178 0.411-0.338 0.547-0.479 0.13-0.145 0.25-0.262 0.36-0.35 0.108-0.097 0.259-0.182 0.454-0.256 0.198-0.079 0.386-0.072 0.561 0.023 0.178 0.104 0.388 0.262 0.63 0.476 0.238 0.22 0.297 0.425 0.177 0.617v0c-0.085 0.135-0.375 0.36-0.87 0.676-0.49 0.32-2.063 1.487-4.72 3.504v0c1.22-0.41 2.704-0.835 4.452-1.276 1.742-0.443 3.156-0.725 4.241-0.844v0c1.055-0.059 1.813 0.055 2.274 0.345z" fill="#001f3f" data-fill-palette-color="accent"></path><path d="M194.985 32.401v0c0.948 0.77 1.051 1.611 0.31 2.523v0c-0.385 0.474-0.83 0.753-1.336 0.838v0c-0.974 0.294-2.148 0.281-3.521-0.04-1.372-0.311-2.421-0.719-3.148-1.224v0c-0.264-0.18-0.339-0.357-0.224-0.529v0c0.038-0.089 0.094-0.116 0.168-0.081 0.079 0.03 0.136 0.059 0.172 0.088v0c0.427 0.296 1.099 0.526 2.017 0.691v0c1.689 0.321 3.079 0.369 4.169 0.142v0c0.482-0.13 0.84-0.339 1.074-0.627 0.239-0.294 0.219-0.553-0.059-0.78v0c-0.232-0.188-0.62-0.342-1.165-0.46v0c-1.138-0.283-2.552-0.317-4.242-0.099-1.686 0.212-3.043 0.661-4.072 1.347v0c-0.314 0.207-0.581 0.447-0.803 0.72-0.222 0.273-0.317 0.627-0.286 1.063 0.03 0.426 0.282 0.832 0.755 1.217v0c0.525 0.427 1.243 0.78 2.154 1.058v0c2.64 0.803 5.159 0.824 7.557 0.062v0c0.216-0.055 0.332-0.004 0.349 0.155v0c0.043 0.095 0.043 0.168 0.001 0.219-0.042 0.051-0.118 0.092-0.228 0.123v0c-1.237 0.449-2.538 0.687-3.903 0.714v0c-2.644 0.066-4.706-0.502-6.184-1.704v0c-1.262-1.026-1.84-2.124-1.734-3.295v0c0.048-0.448 0.244-0.884 0.587-1.306 0.343-0.422 0.865-0.832 1.564-1.23v0c1.25-0.643 3.023-0.904 5.319-0.783 2.295 0.112 3.865 0.511 4.709 1.198z" fill="#001f3f" data-fill-palette-color="accent"></path><path d="M194.11 46.285v0c-0.809-0.824-0.718-1.722 0.271-2.694 0.995-0.976 2.916-1.468 5.765-1.474v0c0.225 0.002 0.392-0.003 0.5-0.016v0l0.408-0.067c0.531-0.075 0.83-0.159 0.897-0.252v0l0.143-0.294c0.134-0.252 0.013-0.655-0.362-1.207-0.37-0.557-0.697-0.98-0.98-1.269v0c-3.478 0.559-5.473 0.867-5.985 0.923-0.507 0.061-0.779 0.026-0.816-0.107-0.032-0.127-0.014-0.223 0.052-0.288 0.062-0.06 0.207-0.106 0.438-0.136v0c1.921-0.175 3.794-0.54 5.62-1.096v0c-0.157-0.227-0.233-0.441-0.226-0.642 0.011-0.197 0.182-0.378 0.512-0.545 0.33-0.166 0.908-0.25 1.734-0.251 0.821 0.003 1.456 0.086 1.905 0.25 0.44 0.164 0.716 0.269 0.828 0.317 0.117 0.053 0.222 0.126 0.314 0.221v0c0.191 0.194-0.163 0.416-1.062 0.666v0l-2.426 0.527c0.664 0.771 1.249 1.415 1.756 1.931v0l0.851 0.824c0.27 0.275 0.434 0.513 0.493 0.716 0.054 0.198-0.041 0.352-0.286 0.462v0c-0.419 0.189-1.108 0.311-2.065 0.368v0c-2.076 0.14-3.99 0.592-5.743 1.354v0c-0.419 0.189-0.743 0.394-0.97 0.618v0c-0.469 0.46-0.536 0.861-0.201 1.202v0c0.112 0.114 0.411 0.238 0.897 0.374 0.487 0.145 1.431 0.26 2.834 0.343 1.393 0.083 2.635 0.036 3.725-0.141v0c0.141-0.017 0.237 0.037 0.287 0.164 0.046 0.132 0.05 0.216 0.012 0.254-0.043 0.042-0.104 0.069-0.184 0.083v0c-0.673 0.186-1.657 0.297-2.953 0.331-1.296 0.035-2.447-0.039-3.454-0.222v0c-1.022-0.141-1.865-0.55-2.529-1.227z" fill="#001f3f" data-fill-palette-color="accent"></path><path d="M200.066 52.178v0c-0.218-0.293-0.366-0.67-0.445-1.133-0.079-0.462-0.046-0.929 0.099-1.401 0.141-0.477 0.393-0.85 0.755-1.119 0.362-0.269 0.767-0.442 1.215-0.519v0c1.031-0.204 2.207-0.169 3.527 0.106 1.321 0.275 2.557 0.658 3.709 1.15 1.155 0.497 1.985 0.951 2.489 1.362 0.508 0.416 0.94 0.864 1.296 1.344 0.356 0.479 0.541 0.983 0.553 1.511 0.012 0.528-0.117 0.893-0.389 1.095v0c-0.091 0.067-0.152 0.096-0.183 0.087-0.033 0-0.059-0.051-0.077-0.153v0c0.184-0.476 0.024-1.052-0.479-1.728-0.507-0.682-1.305-1.288-2.393-1.818-1.084-0.534-2.244-0.932-3.481-1.195v0c-1.073-0.186-2.165-0.243-3.277-0.169-1.113 0.083-1.839 0.251-2.18 0.505v0c-0.676 0.503-0.872 0.946-0.587 1.329 0.281 0.378 1.022 0.729 2.222 1.053v0c2.05 0.477 3.502 0.762 4.356 0.854v0c3.043 0.334 4.613 0.565 4.708 0.692v0c0.162 0.218 0.294 0.529 0.396 0.934 0.098 0.399 0.017 0.612-0.243 0.64v0c-1.999 0.047-3.718 0.482-5.158 1.304v0c-0.181 0.101-0.399 0.247-0.655 0.438-0.25 0.186-0.405 0.412-0.463 0.679v0c-0.087 0.495 0.172 0.881 0.776 1.159 0.608 0.284 1.606 0.563 2.993 0.839 1.391 0.281 2.637 0.404 3.737 0.372v0c0.146 0.007 0.231 0.072 0.256 0.194 0.019 0.126 0.013 0.201-0.019 0.225v0c-0.277 0.206-1.194 0.218-2.751 0.036-1.557-0.182-2.667-0.378-3.329-0.589v0c-1.267-0.381-2.172-0.936-2.714-1.665v0c-0.511-0.687-0.51-1.403 0.003-2.149v0c0.175-0.221 0.398-0.432 0.669-0.634v0c0.82-0.61 1.812-1.078 2.975-1.405v0c-0.093-0.047-0.704-0.113-1.835-0.199-1.136-0.082-2.316-0.284-3.54-0.606-1.22-0.317-2.065-0.792-2.536-1.426z" fill="#001f3f" data-fill-palette-color="accent"></path><path d="M219.605 63.262l0.247 0.375c0.997 1.433 1.587 2.312 1.771 2.635 0.187 0.329 0.231 0.521 0.133 0.577v0c-0.115 0.066-0.372-0.098-0.77-0.49-0.389-0.39-1.19-1.423-2.402-3.101v0c-0.229 0-0.501-0.002-0.816-0.006v0c-0.64-0.026-1.014-0.019-1.123 0.02v0c-2.881 0.155-4.642 0.373-5.283 0.653v0c-0.189 0.084-0.422 0.205-0.699 0.363-0.271 0.154-0.452 0.36-0.543 0.617v0c-0.16 0.457 0.043 0.861 0.608 1.211 0.569 0.356 1.526 0.759 2.873 1.208 1.343 0.443 2.569 0.728 3.678 0.854v0c0.141 0.019 0.217 0.106 0.228 0.259v0c0.029 0.373-1.038 0.303-3.199-0.209v0c-2.071-0.488-3.505-1.066-4.304-1.734v0c-0.452-0.392-0.773-0.756-0.963-1.091v0c-0.446-0.785-0.37-1.518 0.227-2.201v0c0.116-0.119 0.271-0.234 0.468-0.345v0c0.687-0.39 1.909-0.664 3.665-0.823v0c-0.273 0.017-0.981-0.088-2.125-0.315v0c-0.298-0.067-0.376-0.206-0.236-0.416v0c0.027-0.046 0.076-0.089 0.145-0.128 0.069-0.039 0.176-0.046 0.32-0.021v0c1.748 0.282 3.191 0.466 4.331 0.551v0c0.017-0.01 0.553-0.028 1.606-0.054v0c-0.155-0.179-0.29-0.37-0.404-0.571-0.118-0.208-0.141-0.397-0.07-0.567 0.071-0.17 0.218-0.269 0.439-0.295v0c0.39-0.038 0.863 0.384 1.418 1.267v0c0.05-0.006 0.093 0.023 0.129 0.086v0l3.58-0.086c0.202-0.008 0.414-0.01 0.637-0.007 0.223 0.003 0.394 0.001 0.512-0.005 0.116 0.003 0.24 0.005 0.371 0.007 0.131 0.002 0.228 0.012 0.291 0.029 0.063 0.017 0.124 0.037 0.181 0.058v0c0.164 0.006 0.355 0.203 0.575 0.589 0.216 0.381 0.254 0.703 0.114 0.966v0c-0.042 0.1-0.159 0.205-0.349 0.313-0.185 0.105-0.427 0.155-0.728 0.149-0.304-0.011-0.55-0.069-0.74-0.174-0.187-0.1-0.357-0.145-0.511-0.134v0z" fill="#001f3f" data-fill-palette-color="accent"></path><path d="M219.341 75.955v0c0.929 0.03 1.599-0.047 2.012-0.23 0.412-0.183 0.719-0.375 0.921-0.574 0.193-0.202 0.411-0.252 0.653-0.149 0.242 0.103 0.402 0.3 0.481 0.592v0c0.08 0.458-0.292 0.871-1.116 1.238-0.825 0.367-2.126 0.365-3.903-0.006v0c-0.55 0.266-0.701 0.678-0.453 1.236 0.248 0.558 1.226 1.14 2.934 1.745v0c0.856 0.258 1.407 0.412 1.655 0.462 0.241 0.052 0.362 0.144 0.362 0.275-0.009 0.127-0.031 0.199-0.068 0.216v0c-0.212 0.094-0.918-0.038-2.116-0.399v0c-1.966-0.534-3.152-1.256-3.557-2.165v0c-0.267-0.6-0.198-1.139 0.207-1.618v0c-0.62-0.218-1.203-0.442-1.748-0.671v0c-1.038-0.504-1.777-1.251-2.217-2.239v0c-0.248-0.558-0.323-1.084-0.223-1.579v0c0.109-0.913 0.725-1.619 1.847-2.118v0c1.219-0.542 2.639-0.68 4.261-0.414v0c0.959 0.147 1.859 0.415 2.7 0.803v0c1.342 0.616 2.215 1.379 2.62 2.289v0c0.103 0.23 0.169 0.462 0.2 0.695v0c0.063 0.713-0.194 1.197-0.769 1.454v0c-0.473 0.21-0.765 0.191-0.876-0.057v0c-0.009-0.119 0.122-0.24 0.395-0.361v0c0.37-0.165 0.463-0.453 0.28-0.866v0c-0.321-0.722-1.396-1.358-3.225-1.91-1.826-0.546-3.464-0.634-4.912-0.266v0c-0.243 0.057-0.504 0.148-0.783 0.273-0.279 0.124-0.558 0.361-0.839 0.71-0.274 0.347-0.299 0.772-0.075 1.276 0.227 0.509 0.701 0.963 1.422 1.361 0.719 0.392 1.534 0.672 2.445 0.841v0l0.15-0.176c0.29-0.231 0.574-0.31 0.853-0.238 0.285 0.069 0.446 0.259 0.482 0.57z" fill="#001f3f" data-fill-palette-color="accent"></path><path d="M218.583 87.143v0c-0.341-1.103 0.151-1.86 1.476-2.27 1.331-0.412 3.264 0.033 5.799 1.333v0c0.199 0.105 0.35 0.177 0.452 0.214v0l0.394 0.129c0.506 0.177 0.81 0.239 0.912 0.186v0l0.263-0.195c0.234-0.163 0.312-0.576 0.231-1.239-0.074-0.665-0.17-1.191-0.289-1.578v0c-3.347-1.098-5.261-1.739-5.742-1.923-0.479-0.178-0.704-0.334-0.677-0.468 0.03-0.127 0.089-0.205 0.179-0.232 0.082-0.025 0.233 0.001 0.451 0.079v0c1.787 0.725 3.62 1.26 5.497 1.603v0c-0.036-0.274-0.005-0.499 0.094-0.675 0.1-0.17 0.335-0.253 0.704-0.249 0.369 0.004 0.921 0.194 1.657 0.571 0.729 0.379 1.255 0.744 1.578 1.096 0.316 0.347 0.512 0.567 0.59 0.662 0.08 0.1 0.139 0.214 0.179 0.34v0c0.08 0.26-0.336 0.295-1.249 0.105v0l-2.398-0.644c0.237 0.99 0.462 1.83 0.675 2.521v0l0.379 1.123c0.114 0.368 0.15 0.655 0.11 0.862-0.042 0.201-0.197 0.294-0.466 0.279v0c-0.459-0.025-1.127-0.231-2.005-0.62v0c-1.909-0.827-3.817-1.303-5.724-1.428v0c-0.459-0.025-0.841 0.01-1.145 0.104v0c-0.628 0.194-0.871 0.519-0.73 0.976v0c0.047 0.152 0.256 0.4 0.626 0.744 0.366 0.352 1.153 0.887 2.361 1.604 1.2 0.713 2.325 1.24 3.375 1.582v0c0.133 0.049 0.193 0.142 0.18 0.278-0.02 0.138-0.055 0.215-0.106 0.23-0.057 0.018-0.124 0.014-0.201-0.01v0c-0.683-0.143-1.609-0.496-2.776-1.059-1.167-0.563-2.157-1.157-2.968-1.781v0c-0.843-0.594-1.405-1.344-1.686-2.251z" fill="#001f3f" data-fill-palette-color="accent"></path><path d="M15.75 168.746v0c-0.229-0.573-0.14-1.091 0.268-1.554 0.402-0.461 0.997-0.849 1.786-1.164 0.789-0.315 1.934-0.58 3.435-0.794v0c-0.203-0.669-0.511-1.825-0.925-3.468v0c-4.222-1.3-7.293-2.556-9.214-3.768v0c-1.681-1.022-2.836-2.322-3.466-3.9v0c-0.399-0.998-0.492-1.955-0.279-2.869 0.22-0.917 0.819-1.571 1.8-1.962v0c0.185-0.074 0.376-0.097 0.573-0.069 0.191 0.031 0.268 0.107 0.231 0.23-0.037 0.122-0.231 0.253-0.583 0.393v0c-0.629 0.251-1.001 0.686-1.118 1.305-0.117 0.619-0.036 1.279 0.245 1.982v0c0.608 1.522 1.7 2.823 3.274 3.901 1.581 1.076 4.327 2.305 8.238 3.687v0c-0.756-2.857-1.309-4.723-1.658-5.598v0c-0.941-2.354-2.292-3.501-4.055-3.44v0c-0.233 0.007-0.439 0.047-0.617 0.118-0.173 0.069-0.315 0.169-0.428 0.3-0.106 0.128-0.211 0.188-0.314 0.179-0.1-0.017-0.169-0.083-0.207-0.196-0.032-0.116-0.007-0.233 0.074-0.351v0c0.27-0.344 0.571-0.582 0.904-0.715v0c1.146-0.458 2.077-0.587 2.794-0.388 0.713 0.194 1.256 0.541 1.628 1.043v0c0.451 0.592 0.854 1.331 1.208 2.219 0.357 0.894 0.902 3.277 1.636 7.15v0c1.545 0.54 4.001 1.32 7.367 2.341 3.36 1.023 5.059 1.527 5.096 1.512v0l0.011 0.028c0.026 0.011 0.072 0.046 0.139 0.105v0c0.442 0.338 0.768 0.769 0.977 1.292v0c0.074 0.185 0.015 0.315-0.176 0.392v0c-0.018 0.007-0.044 0.007-0.076-0.002-0.038-0.006-0.083-0.01-0.133-0.011-0.057 0.001-0.107 0-0.151-0.003v0c-3.657-0.604-7.526-0.662-11.605-0.176v0l-0.227-0.006 0.253 0.714c0.041 0.155 0.136 0.421 0.286 0.797 0.153 0.382 0.4 0.751 0.743 1.107 0.349 0.354 0.649 0.552 0.902 0.594 0.25 0.036 0.338 0.122 0.264 0.259-0.072 0.143-0.188 0.2-0.35 0.172v0c-0.451-0.056-0.866-0.308-1.245-0.757v0c-0.362-0.37-0.631-0.773-0.806-1.211-0.172-0.431-0.284-0.712-0.336-0.841v0l-0.275-0.769c-1.749 0.292-3.101 0.628-4.056 1.01-0.955 0.382-1.329 0.831-1.123 1.349v0c0.202 0.505 0.911 1.126 2.127 1.862 1.225 0.74 2.65 1.321 4.277 1.743v0c0.096 0.026 0.144 0.092 0.144 0.199 0 0.107-0.028 0.172-0.083 0.194-0.055 0.022-0.128 0.037-0.218 0.045-0.099 0.004-0.366-0.057-0.802-0.184v0c-1.352-0.36-2.716-0.923-4.094-1.687v0c-0.972-0.555-1.659-1.335-2.06-2.339zM30.349 164.692v0c0.044 0.004 0.102 0.006 0.173 0.005 0.08 0.004 0.142 0.007 0.187 0.011v0c-4.1-1.049-7.291-1.935-9.574-2.659v0l0.695 3.109c2.222-0.288 5.061-0.443 8.519-0.467z" fill="#001f3f" data-fill-palette-color="accent"></path><path d="M23.454 179.914v0l-0.439 0.255c-0.121 0.07-0.374 0.09-0.759 0.061-0.385-0.03-0.608-0.096-0.668-0.199v0c-0.33-0.568-0.357-0.932-0.081-1.093v0c0.138-0.08 0.444-0.028 0.919 0.157v0c0.659 0.262 1.021 0.451 1.088 0.566 0.063 0.109 0.043 0.194-0.06 0.253z" fill="#001f3f" data-fill-palette-color="accent"></path><path d="M34.122 182.983v0c0.295 0.401 0.344 0.736 0.147 1.004v0c-0.121 0.138-0.276 0.224-0.466 0.257-0.189 0.024-0.335 0.049-0.439 0.076-0.104 0.027-0.186 0.05-0.246 0.069v0c-0.219 0.038-0.431 0.07-0.634 0.096v0c-2.506 0.436-4.028 0.815-4.565 1.137v0c-0.156 0.09-0.346 0.218-0.571 0.383-0.224 0.165-0.362 0.365-0.411 0.6v0c-0.091 0.413 0.129 0.746 0.66 0.997 0.531 0.252 1.412 0.501 2.642 0.75 1.224 0.252 2.328 0.375 3.311 0.368v0c0.127 0.005 0.202 0.061 0.224 0.169 0.016 0.112 0.006 0.181-0.032 0.208-0.043 0.031-0.1 0.049-0.172 0.053v0c-0.61 0.078-1.482 0.053-2.615-0.077v0c-1.871-0.213-3.189-0.57-3.953-1.07v0c-0.439-0.295-0.759-0.578-0.96-0.851v0c-0.476-0.647-0.486-1.298-0.03-1.955v0c0.089-0.115 0.213-0.231 0.373-0.349v0c0.566-0.417 1.608-0.788 3.124-1.113v0c-0.235 0.05-0.866 0.032-1.893-0.053v0c-0.267-0.026-0.349-0.138-0.248-0.337v0c0.02-0.04 0.057-0.079 0.11-0.118 0.059-0.043 0.152-0.062 0.279-0.057v0c1.556 0.065 2.841 0.075 3.855 0.029v0c0.057-0.091 0.173-0.152 0.348-0.182v0c1.134-0.34 1.813-0.408 2.038-0.203v0c0.035 0.048 0.077 0.104 0.124 0.169zM38.733 182.529v0l-0.911 0.375c-0.144 0.106-0.455 0.171-0.933 0.192-0.474 0.028-0.752-0.015-0.835-0.126v0c-0.508-0.689-0.593-1.158-0.257-1.406v0c0.064-0.047 0.615 0.079 1.651 0.379v0l0.614 0.178c0.417 0.097 0.649 0.177 0.697 0.241 0.047 0.064 0.039 0.12-0.026 0.167z" fill="#001f3f" data-fill-palette-color="accent"></path><path d="M35.31 195.742v0l-0.39 0.326c-0.107 0.089-0.353 0.152-0.738 0.188-0.385 0.036-0.616 0.008-0.692-0.083v0c-0.421-0.504-0.509-0.858-0.265-1.063v0c0.122-0.102 0.433-0.102 0.933-0.001v0c0.694 0.147 1.083 0.272 1.168 0.373 0.081 0.097 0.075 0.183-0.016 0.26z" fill="#001f3f" data-fill-palette-color="accent"></path><path d="M57.508 201.151v0c-0.189 0.257-0.287 0.531-0.294 0.821-0.002 0.295 0.023 0.523 0.076 0.686v0c0.119 0.309 0.29 0.682 0.514 1.118v0c0.087 0.286 0.062 0.404-0.074 0.353v0c-0.048-0.035-0.098-0.085-0.151-0.148v0c-0.326-0.363-0.565-0.896-0.715-1.599-0.156-0.707-0.059-1.315 0.289-1.825v0c0.081-0.212 0.169-0.382 0.264-0.51v0c0.511-0.695 1.246-1.086 2.206-1.172v0c1.747-0.125 3.794 0.674 6.143 2.398v0c0.047-0.064 0.13-0.127 0.249-0.187v0c0.177-0.174 0.499-0.091 0.964 0.251v0c0.407 0.298 0.529 0.541 0.368 0.727v0c-0.158 0.081-0.275 0.156-0.35 0.224v0c0.98 0.818 1.685 1.657 2.116 2.517v0c0.148 0.281 0.213 0.539 0.197 0.775-0.011 0.239-0.04 0.391-0.087 0.454v0c-0.106 0.144-0.381-0.098-0.824-0.728-0.439-0.635-1.261-1.395-2.464-2.278v0c-0.333 0.274-1.238 0.923-2.714 1.947-1.478 1.015-2.402 1.641-2.774 1.878-0.372 0.237-0.886 0.568-1.543 0.991-0.653 0.418-1.203 0.747-1.65 0.987-0.451 0.245-0.963 0.516-1.535 0.812v0c-0.962 0.504-1.964 0.909-3.004 1.215v0c-0.743 0.171-1.278 0.26-1.604 0.268v0c0.273 0.2 0.802 0.589 1.589 1.166 0.792 0.581 1.5 1.068 2.126 1.461 0.621 0.398 0.944 0.643 0.967 0.735 0.018 0.087-0.02 0.146-0.116 0.175v0c-0.214 0.09-0.435 0.121-0.662 0.094-0.223-0.032-1.461-0.825-3.712-2.379-2.251-1.554-3.65-2.531-4.195-2.932-0.551-0.405-0.947-0.695-1.187-0.872v0c-0.357-0.287-0.436-0.567-0.236-0.839v0c0.106-0.144 0.301-0.31 0.586-0.496v0c0.301-0.174 0.645-0.177 1.032-0.009 0.377 0.17 0.621 0.456 0.729 0.857v0c0.174 0.671 0.47 1.16 0.887 1.466 0.417 0.306 0.907 0.542 1.469 0.708 0.562 0.165 1.281 0.122 2.159-0.132v0c2.572-0.779 6.625-3.435 12.159-7.967v0c-1.576-0.959-3.028-1.56-4.357-1.803-1.328-0.243-2.276 0.021-2.841 0.792z" fill="#001f3f" data-fill-palette-color="accent"></path><path d="M67.57 213.25v0c-0.065 0.123-0.303 0.343-0.716 0.659-0.41 0.31-1.712 1.444-3.907 3.403v0c1.041-0.443 2.315-0.922 3.82-1.437v0c3.038-1.023 4.931-1.339 5.678-0.948v0c0.159 0.083 0.288 0.207 0.389 0.373 0.107 0.168 0.078 0.408-0.085 0.72-0.16 0.306-0.437 0.599-0.832 0.879-0.391 0.275-0.855 0.624-1.391 1.047-0.539 0.414-0.89 0.669-1.052 0.763v0c2.192-0.567 3.743-0.796 4.653-0.686 0.918 0.106 1.501 0.224 1.748 0.353 0.247 0.129 0.324 0.282 0.231 0.459v0c-0.055 0.106-0.322 0.292-0.798 0.559-0.48 0.273-1.087 0.723-1.82 1.35-0.739 0.624-1.209 1.086-1.411 1.385-0.205 0.305-0.372 0.581-0.501 0.828-0.129 0.247-0.165 0.487-0.107 0.719v0c0.123 0.424 0.478 0.632 1.065 0.626 0.588-0.007 1.489-0.168 2.703-0.483 1.211-0.31 2.248-0.688 3.112-1.135v0c0.117-0.051 0.211-0.032 0.284 0.059 0.075 0.099 0.102 0.17 0.08 0.211-0.025 0.047-0.068 0.088-0.131 0.122v0c-0.514 0.338-1.309 0.697-2.385 1.077v0c-1.775 0.628-3.116 0.885-4.022 0.77v0c-0.983-0.155-1.604-0.436-1.863-0.841-0.259-0.406-0.364-0.764-0.313-1.075 0.05-0.311 0.145-0.598 0.283-0.863v0c0.437-0.835 1.038-1.58 1.801-2.237 0.758-0.659 1.313-1.091 1.668-1.295v0c-0.821-0.063-1.581-0.008-2.279 0.166v0c-1.056 0.256-1.932 0.505-2.628 0.748v0l-0.834 0.304c-0.365 0.311-0.761 0.388-1.188 0.232-0.422-0.153-0.54-0.384-0.357-0.693v0c0.214-0.322 0.934-0.904 2.162-1.744 1.23-0.846 1.879-1.334 1.946-1.464 0.071-0.135 0.036-0.24-0.105-0.314v0c-0.317-0.166-1.082-0.102-2.292 0.193v0c-0.815 0.225-2.13 0.769-3.945 1.631-1.815 0.862-2.816 1.3-3.004 1.314v0c-0.807-0.018-1.29-0.069-1.448-0.152-0.159-0.083-0.224-0.151-0.197-0.204 0.028-0.053 0.096-0.118 0.204-0.197 0.108-0.078 1.454-1.332 4.039-3.761v0c-0.708 0.393-1.304 0.665-1.788 0.816v0c-0.224 0.085-0.279 0.018-0.165-0.199 0.117-0.223 0.279-0.382 0.485-0.476v0c1.345-0.622 2.393-1.2 3.145-1.735v0c0.429-0.562 0.83-0.812 1.203-0.752v0c0.231 0.031 0.457 0.15 0.679 0.356 0.216 0.203 0.278 0.393 0.186 0.569z" fill="#001f3f" data-fill-palette-color="accent"></path><path d="M81.515 228.87v0c-0.303-0.097-0.604-0.291-0.9-0.581-0.295-0.297-0.512-0.652-0.651-1.066-0.141-0.408-0.151-0.801-0.03-1.181 0.124-0.385 0.326-0.721 0.606-1.008v0c0.635-0.675 1.496-1.252 2.584-1.732 1.088-0.48 2.172-0.84 3.252-1.079 1.087-0.237 1.917-0.337 2.49-0.299 0.573 0.038 1.113 0.137 1.619 0.3 0.506 0.162 0.898 0.427 1.176 0.795 0.277 0.375 0.37 0.704 0.279 0.989v0c-0.03 0.095-0.058 0.149-0.083 0.161-0.025 0.013-0.069-0.012-0.133-0.074v0c-0.112-0.433-0.525-0.764-1.239-0.993-0.714-0.229-1.598-0.255-2.652-0.077-1.052 0.171-2.089 0.483-3.112 0.936v0c-0.864 0.413-1.676 0.933-2.434 1.56-0.759 0.628-1.196 1.122-1.312 1.482v0c-0.225 0.701-0.135 1.117 0.269 1.247 0.398 0.128 1.108 0 2.13-0.383v0c1.719-0.71 2.91-1.251 3.574-1.624v0c2.354-1.322 3.598-1.961 3.73-1.919v0c0.227 0.073 0.481 0.228 0.761 0.464 0.28 0.236 0.332 0.431 0.158 0.584v0c-1.413 1.059-2.428 2.256-3.045 3.592v0c-0.074 0.165-0.153 0.38-0.238 0.645-0.085 0.265-0.079 0.508 0.018 0.727v0c0.193 0.397 0.579 0.541 1.157 0.433 0.578-0.107 1.438-0.42 2.58-0.939 1.14-0.512 2.097-1.063 2.872-1.65v0c0.106-0.07 0.2-0.068 0.28 0.006 0.079 0.081 0.112 0.14 0.099 0.178v0c-0.091 0.284-0.743 0.762-1.954 1.433-1.212 0.671-2.109 1.101-2.693 1.29v0c-1.104 0.378-2.038 0.444-2.803 0.198v0c-0.72-0.231-1.088-0.746-1.103-1.546v0c0.016-0.246 0.07-0.511 0.161-0.795v0c0.276-0.859 0.746-1.705 1.41-2.537v0c-0.088 0.014-0.56 0.28-1.417 0.8-0.859 0.526-1.808 0.988-2.849 1.386-1.041 0.398-1.893 0.491-2.557 0.277z" fill="#001f3f" data-fill-palette-color="accent"></path><path d="M95.034 244.398v0c-0.157-0.024-0.35-0.084-0.577-0.178v0c-0.965-0.409-1.386-1.014-1.265-1.814 0.122-0.8 0.79-1.722 2.003-2.766 1.221-1.049 3.669-2.425 7.345-4.127v0c1.859-2.684 3.193-4.83 4.003-6.438v0c-1.306 1.17-2.234 1.975-2.785 2.415v0c-2.079 1.704-3.66 2.473-4.742 2.308v0c-0.315-0.048-0.642-0.192-0.982-0.432-0.338-0.246-0.609-0.563-0.812-0.949-0.204-0.38-0.276-0.767-0.215-1.161v0c0.16-1.05 1.071-2.113 2.731-3.188v0c0.987-0.662 1.995-1.196 3.024-1.604 1.035-0.406 1.839-0.636 2.411-0.689 0.572-0.054 1.114-0.042 1.626 0.036 0.518 0.079 0.953 0.286 1.304 0.622 0.352 0.336 0.506 0.641 0.465 0.916v0c-0.024 0.157-0.11 0.195-0.259 0.112v0c-0.159-0.407-0.61-0.667-1.351-0.78-0.741-0.113-1.618 0.002-2.63 0.344-1.011 0.336-1.941 0.778-2.79 1.327-0.849 0.549-1.6 1.203-2.253 1.963-0.653 0.76-1.009 1.336-1.069 1.73v0c-0.105 0.689 0.043 1.064 0.442 1.124v0c0.551 0.084 1.466-0.24 2.746-0.971v0c1.901-1.066 3.777-2.428 5.628-4.086v0c0.313-0.335 0.843-0.244 1.59 0.273v0c0.291 0.205 0.398 0.363 0.32 0.471v0c-0.344 0.538-0.964 1.461-1.861 2.768-0.897 1.307-1.567 2.289-2.01 2.946v0c0.489-0.167 1.354-0.646 2.595-1.437 1.242-0.791 2.353-1.605 3.333-2.443v0c0.511-0.446 0.74-0.491 0.685-0.137v0c-0.075 0.492-1.458 1.614-4.148 3.366v0c-1.551 1.012-2.635 1.632-3.254 1.86v0c-2.207 3.201-3.663 5.201-4.368 6v0c-1.81 1.966-3.437 2.839-4.88 2.619zM101.807 236.559v0c-2.638 1.41-4.552 2.555-5.74 3.435-1.181 0.881-1.842 1.777-1.98 2.689v0c-0.042 0.276 0.017 0.486 0.175 0.631 0.159 0.145 0.337 0.233 0.534 0.263 0.197 0.03 0.505-0.074 0.924-0.313 0.42-0.245 0.786-0.488 1.098-0.729 0.313-0.248 0.586-0.478 0.82-0.69 0.235-0.219 0.503-0.504 0.805-0.854 0.307-0.343 0.546-0.612 0.717-0.807 0.171-0.196 0.416-0.507 0.737-0.935 0.314-0.429 0.529-0.718 0.645-0.868 0.111-0.158 0.331-0.473 0.658-0.947 0.321-0.475 0.523-0.766 0.607-0.875z" fill="#001f3f" data-fill-palette-color="accent"></path><path d="M121.175 227.136v0c1.074 0.037 1.594 0.572 1.559 1.607v0c-0.018 0.537-0.182 0.973-0.493 1.308v0c-0.522 0.719-1.35 1.332-2.483 1.838-1.14 0.512-2.098 0.785-2.876 0.818v0c-0.279 0.01-0.426-0.074-0.44-0.254v0c-0.017-0.08 0.008-0.129 0.075-0.147 0.074-0.017 0.13-0.025 0.17-0.024v0c0.459-0.024 1.053-0.223 1.784-0.596v0c1.364-0.671 2.368-1.377 3.01-2.119v0c0.271-0.349 0.412-0.687 0.423-1.012 0.011-0.332-0.142-0.503-0.461-0.513v0c-0.259-0.009-0.611 0.089-1.056 0.292v0c-0.95 0.406-1.964 1.135-3.042 2.188-1.072 1.053-1.784 2.091-2.138 3.114v0c-0.111 0.322-0.171 0.635-0.181 0.94-0.011 0.312 0.109 0.611 0.357 0.899 0.249 0.287 0.642 0.44 1.18 0.458v0c0.597 0.02 1.292-0.115 2.086-0.407v0c2.28-0.839 4.061-2.166 5.344-3.981v0c0.125-0.155 0.235-0.181 0.332-0.079v0c0.078 0.043 0.116 0.094 0.114 0.154-0.002 0.06-0.034 0.128-0.097 0.205v0c-0.631 0.975-1.42 1.838-2.369 2.589v0c-1.822 1.452-3.572 2.149-5.25 2.093v0c-1.439-0.049-2.433-0.511-2.981-1.387v0c-0.207-0.346-0.303-0.757-0.287-1.234 0.016-0.484 0.165-1.05 0.447-1.698v0c0.536-1.117 1.644-2.248 3.322-3.393 1.679-1.138 2.996-1.691 3.951-1.659z" fill="#001f3f" data-fill-palette-color="accent"></path><path d="M147.149 232.817v0c-0.582 0.254-1.174 0.449-1.777 0.584v0c-1.968 0.444-3.667 0.164-5.098-0.84v0c-0.999-0.72-1.654-1.77-1.965-3.148v0c-0.672-2.978 0.057-6.006 2.186-9.086v0c2.394-3.35 5.744-5.51 10.049-6.481v0c1.224-0.276 2.335-0.278 3.335-0.007v0c0.813 0.225 1.307 0.726 1.482 1.503v0c0.074 0.33 0.019 0.537-0.167 0.619v0c-0.246 0.117-0.418 0.002-0.516-0.343v0c-0.367-1.264-1.502-1.682-3.405-1.252v0c-0.861 0.194-1.873 0.64-3.035 1.337-1.161 0.704-2.324 1.596-3.489 2.675-1.17 1.087-2.232 2.231-3.185 3.433-0.959 1.209-1.676 2.494-2.152 3.853-0.484 1.354-0.591 2.627-0.322 3.817 0.267 1.185 0.887 2.001 1.858 2.449 0.965 0.449 2.053 0.537 3.264 0.264v0c1.321-0.298 2.806-0.878 4.455-1.74v0c0.904-0.517 1.736-1.14 2.497-1.869 0.753-0.734 1.316-1.358 1.69-1.871v0c0.714-0.937 1.416-1.956 2.107-3.057v0c0.199-1.29 0.814-2.153 1.844-2.59v0c0.429-0.178 0.915-0.288 1.457-0.328v0l0.362-0.021c0.184-0.001 0.282 0.028 0.296 0.087v0c0.044 0.194-0.063 0.31-0.32 0.347v0c-0.019 0.004-0.039 0.009-0.058 0.013v0c-1.049 0.237-1.694 1.416-1.937 3.539v0c-0.17 1.691-0.346 3.214-0.531 4.569v0c0.977-0.465 1.633-0.736 1.97-0.811 0.33-0.074 0.572-0.088 0.726-0.042 0.153 0.047 0.196 0.129 0.127 0.247-0.062 0.116-0.143 0.165-0.243 0.147-0.093-0.02-0.253-0.004-0.479 0.047-0.227 0.051-0.645 0.231-1.256 0.538-0.616 0.316-0.947 0.642-0.993 0.979v0c-0.837 5.366-2.421 9.325-4.75 11.878v0c-1.05 1.135-2.064 1.813-3.042 2.033v0c-0.369 0.083-0.732 0.104-1.088 0.062v0c-0.968-0.129-1.564-0.691-1.789-1.688v0c-0.267-1.185 0.053-2.617 0.959-4.299v0c1.757-3.281 4.542-6.045 8.355-8.292v0c0.157-1.655 0.279-3.288 0.364-4.899v0c-2.741 4.074-5.337 6.622-7.786 7.644zM146.738 241.9v0c0.048 0.214 0.126 0.421 0.232 0.621v0c0.366 0.72 0.938 0.993 1.715 0.817v0c1.152-0.26 2.186-1.303 3.101-3.128v0c1.359-2.783 2.261-5.963 2.706-9.539v0c-3.162 1.876-5.456 4.285-6.881 7.226v0c-0.814 1.639-1.105 2.974-0.873 4.003z" fill="#001f3f" data-fill-palette-color="accent"></path><path d="M168.857 216.643v0c0.982-0.437 1.684-0.182 2.104 0.764v0c0.218 0.491 0.261 0.955 0.129 1.391v0c-0.155 0.875-0.632 1.788-1.429 2.739-0.801 0.959-1.544 1.624-2.23 1.994v0c-0.247 0.131-0.415 0.119-0.506-0.037v0c-0.051-0.065-0.05-0.12 0.003-0.164 0.059-0.048 0.106-0.08 0.143-0.096v0c0.402-0.222 0.85-0.661 1.342-1.317v0c0.934-1.2 1.527-2.274 1.782-3.221v0c0.091-0.433 0.07-0.797-0.062-1.095-0.135-0.303-0.348-0.39-0.639-0.261v0c-0.236 0.105-0.51 0.347-0.822 0.725v0c-0.677 0.78-1.27 1.88-1.78 3.298-0.504 1.415-0.691 2.66-0.561 3.736v0c0.041 0.338 0.124 0.646 0.248 0.924 0.127 0.285 0.365 0.502 0.715 0.652 0.35 0.149 0.77 0.115 1.261-0.103v0c0.546-0.243 1.112-0.669 1.698-1.278v0c1.683-1.751 2.705-3.724 3.066-5.918v0c0.044-0.194 0.132-0.266 0.264-0.215v0c0.089 0.004 0.146 0.033 0.169 0.088 0.024 0.055 0.025 0.13 0.004 0.227v0c-0.141 1.152-0.474 2.274-0.999 3.364v0c-1.004 2.103-2.273 3.495-3.808 4.177v0c-1.316 0.585-2.411 0.604-3.286 0.057v0c-0.338-0.22-0.604-0.549-0.798-0.986-0.197-0.443-0.311-1.017-0.341-1.722v0c-0.006-1.239 0.495-2.741 1.505-4.504 1.012-1.758 1.955-2.831 2.828-3.219z" fill="#001f3f" data-fill-palette-color="accent"></path><path d="M181.184 209.903v0c0.396-0.243 0.722-0.155 0.979 0.263 0.254 0.413 0.408 1.108 0.464 2.087 0.058 0.969 0.134 1.74 0.229 2.312v0c0.157 0.978 0.38 1.702 0.668 2.172 0.288 0.469 0.547 0.739 0.776 0.808v0c0.421 0.115 0.776-0.087 1.065-0.607 0.297-0.518 0.622-1.371 0.974-2.561 0.358-1.193 0.568-2.277 0.632-3.25v0c0.016-0.127 0.081-0.198 0.196-0.214 0.124-0.014 0.198-0.001 0.222 0.039 0.028 0.045 0.04 0.104 0.038 0.176v0c0.027 0.614-0.075 1.483-0.305 2.605-0.221 1.125-0.504 2.089-0.851 2.894-0.349 0.814-0.82 1.403-1.414 1.768v0c-0.587 0.337-1.074 0.457-1.461 0.36-0.39-0.103-0.7-0.341-0.929-0.715-0.229-0.373-0.418-0.756-0.565-1.148-0.147-0.392-0.269-0.875-0.363-1.447v0c-0.143-0.917-0.223-1.65-0.242-2.2-0.027-0.552-0.079-0.89-0.155-1.014-0.08-0.13-0.188-0.153-0.324-0.07v0c-0.271 0.167-0.584 0.818-0.937 1.954v0c-0.229 0.818-0.438 2.228-0.628 4.228-0.189 2.001-0.325 3.085-0.408 3.254v0c-0.423 0.68-0.711 1.068-0.864 1.161-0.153 0.094-0.245 0.115-0.276 0.064-0.031-0.051-0.058-0.132-0.079-0.243-0.025-0.117-0.143-0.683-0.354-1.699-0.22-1.018-0.46-2.132-0.721-3.342-0.261-1.211-0.417-1.94-0.468-2.189-0.046-0.252-0.101-0.456-0.165-0.611-0.062-0.164-0.107-0.308-0.136-0.431-0.029-0.123-0.038-0.277-0.027-0.462 0.02-0.183 0.102-0.328 0.248-0.433 0.149-0.099 0.355-0.202 0.617-0.308 0.265-0.101 0.45-0.066 0.554 0.103v0c0.073 0.119 0.139 0.436 0.199 0.953 0.057 0.51 0.364 2.21 0.924 5.098v0c0.152-1.122 0.395-2.458 0.726-4.009 0.338-1.555 0.673-2.785 1.005-3.69v0c0.363-0.854 0.749-1.406 1.156-1.656z" fill="#001f3f" data-fill-palette-color="accent"></path><path d="M192.346 201.542v0c0.839-0.672 1.582-0.604 2.23 0.204v0c0.336 0.42 0.495 0.857 0.478 1.313v0c0.072 0.886-0.157 1.89-0.687 3.012-0.531 1.131-1.081 1.963-1.649 2.495v0c-0.205 0.19-0.371 0.221-0.499 0.093v0c-0.065-0.05-0.078-0.103-0.039-0.16 0.045-0.061 0.082-0.104 0.114-0.129v0c0.332-0.317 0.654-0.855 0.964-1.614v0c0.598-1.397 0.899-2.587 0.904-3.569v0c-0.022-0.442-0.135-0.789-0.338-1.043-0.207-0.259-0.435-0.289-0.684-0.089v0c-0.202 0.162-0.405 0.465-0.611 0.909v0c-0.456 0.927-0.751 2.141-0.883 3.642-0.128 1.497 0.008 2.749 0.406 3.756v0c0.126 0.316 0.284 0.593 0.475 0.831 0.195 0.243 0.481 0.393 0.857 0.449 0.376 0.056 0.774-0.084 1.194-0.421v0c0.466-0.373 0.905-0.929 1.317-1.667v0c1.183-2.121 1.67-4.289 1.461-6.503v0c-0.006-0.199 0.06-0.291 0.201-0.275v0c0.087-0.019 0.149-0.005 0.186 0.042 0.037 0.047 0.058 0.12 0.061 0.219v0c0.156 1.15 0.119 2.319-0.111 3.507v0c-0.437 2.289-1.31 3.958-2.621 5.008v0c-1.124 0.9-2.179 1.197-3.164 0.89v0c-0.383-0.127-0.723-0.377-1.022-0.75-0.303-0.378-0.559-0.904-0.768-1.579v0c-0.321-1.197-0.217-2.776 0.311-4.739 0.532-1.957 1.172-3.234 1.917-3.832z" fill="#001f3f" data-fill-palette-color="accent"></path><path d="M206.185 201.601v0c-0.714 0.722-1.508 0.651-2.38-0.213-0.873-0.864-1.327-2.551-1.364-5.061v0c-0.001-0.197-0.011-0.347-0.031-0.45v0l-0.065-0.359c-0.073-0.464-0.152-0.724-0.236-0.78v0l-0.254-0.125c-0.226-0.111-0.58 0.001-1.061 0.336-0.491 0.336-0.862 0.631-1.115 0.886v0c0.542 3.057 0.839 4.813 0.893 5.268 0.059 0.45 0.032 0.69-0.08 0.718-0.112 0.029-0.197 0.015-0.254-0.041-0.057-0.056-0.1-0.182-0.129-0.379v0c-0.173-1.693-0.52-3.343-1.039-4.95v0c-0.196 0.142-0.384 0.208-0.562 0.2-0.174-0.004-0.336-0.151-0.488-0.441-0.147-0.285-0.227-0.794-0.24-1.526-0.013-0.723 0.05-1.281 0.188-1.677 0.143-0.4 0.236-0.649 0.278-0.747 0.042-0.099 0.105-0.191 0.188-0.276v0c0.168-0.17 0.367 0.139 0.596 0.926v0l0.497 2.144c0.677-0.6 1.24-1.126 1.688-1.578v0l0.714-0.764c0.238-0.241 0.444-0.387 0.617-0.44 0.178-0.048 0.317 0.034 0.417 0.245v0c0.171 0.365 0.287 0.97 0.347 1.814v0c0.155 1.834 0.582 3.521 1.28 5.061v0c0.171 0.365 0.355 0.646 0.553 0.842v0c0.41 0.406 0.765 0.458 1.064 0.156v0c0.098-0.099 0.205-0.362 0.32-0.79 0.12-0.432 0.207-1.266 0.261-2.5 0.059-1.239 0.002-2.337-0.172-3.293v0c-0.015-0.127 0.032-0.211 0.139-0.254 0.117-0.043 0.192-0.048 0.226-0.016 0.038 0.037 0.064 0.091 0.078 0.162v0c0.172 0.59 0.28 1.458 0.323 2.602 0.053 1.145 0.004 2.161-0.146 3.049v0c-0.108 0.902-0.458 1.652-1.051 2.251z" fill="#001f3f" data-fill-palette-color="accent"></path><path d="M213.428 192.887v0c-0.191 0.255-0.472 0.475-0.844 0.662-0.377 0.182-0.784 0.271-1.22 0.267-0.431 0-0.806-0.119-1.125-0.358-0.324-0.243-0.576-0.543-0.755-0.902v0c-0.43-0.82-0.695-1.823-0.793-3.008-0.099-1.185-0.084-2.327 0.043-3.426 0.131-1.104 0.308-1.921 0.531-2.451 0.223-0.53 0.493-1.007 0.812-1.432 0.318-0.425 0.697-0.709 1.136-0.852 0.445-0.139 0.786-0.12 1.026 0.059v0c0.08 0.06 0.121 0.103 0.125 0.131 0.004 0.028-0.034 0.062-0.113 0.102v0c-0.446-0.036-0.894 0.246-1.344 0.847-0.45 0.6-0.763 1.427-0.939 2.48-0.182 1.05-0.226 2.132-0.132 3.248v0c0.108 0.952 0.334 1.889 0.679 2.811 0.345 0.922 0.669 1.497 0.972 1.723v0c0.589 0.442 1.012 0.493 1.267 0.153 0.251-0.335 0.362-1.047 0.333-2.138v0c-0.109-1.857-0.232-3.159-0.367-3.908v0c-0.48-2.657-0.678-4.041-0.594-4.153v0c0.143-0.191 0.372-0.38 0.686-0.567 0.315-0.187 0.516-0.173 0.603 0.041v0c0.539 1.681 1.339 3.032 2.401 4.051v0c0.131 0.123 0.309 0.269 0.531 0.436 0.223 0.167 0.454 0.241 0.693 0.221v0c0.438-0.053 0.701-0.371 0.788-0.952 0.087-0.581 0.073-1.497-0.044-2.746-0.112-1.245-0.319-2.329-0.622-3.253v0c-0.032-0.123 0.001-0.211 0.097-0.262 0.102-0.048 0.169-0.06 0.201-0.036v0c0.239 0.179 0.477 0.951 0.716 2.315 0.238 1.364 0.351 2.353 0.339 2.966v0c-0.004 1.167-0.246 2.071-0.728 2.714v0c-0.454 0.605-1.061 0.785-1.821 0.538v0c-0.227-0.096-0.46-0.233-0.699-0.412v0c-0.722-0.541-1.368-1.262-1.938-2.161v0c-0.016 0.088 0.082 0.621 0.293 1.6 0.217 0.983 0.343 2.032 0.379 3.146 0.036 1.114-0.155 1.949-0.573 2.506z" fill="#001f3f" data-fill-palette-color="accent"></path><path d="M217.64 171.443l0.171-0.36c0.639-1.401 1.04-2.245 1.205-2.533 0.161-0.282 0.285-0.399 0.371-0.35v0c0.104 0.059 0.095 0.322-0.025 0.788-0.118 0.475-0.542 1.552-1.27 3.229v0c0.106 0.175 0.229 0.383 0.367 0.622v0c0.267 0.496 0.439 0.778 0.515 0.845v0c1.415 2.114 2.378 3.351 2.891 3.712v0c0.146 0.106 0.34 0.228 0.581 0.366 0.242 0.138 0.48 0.182 0.715 0.133v0c0.415-0.084 0.629-0.42 0.644-1.008 0.014-0.588-0.114-1.494-0.385-2.718-0.266-1.221-0.601-2.28-1.007-3.177v0c-0.047-0.118-0.015-0.215 0.096-0.289v0c0.269-0.19 0.696 0.649 1.279 2.518v0c0.564 1.797 0.772 3.146 0.625 4.047v0c-0.091 0.521-0.22 0.929-0.388 1.223v0c-0.398 0.697-0.99 0.971-1.775 0.821v0c-0.141-0.034-0.298-0.101-0.471-0.2v0c-0.611-0.349-1.372-1.15-2.284-2.404v0c0.141 0.195 0.381 0.779 0.719 1.752v0c0.084 0.254 0.015 0.375-0.207 0.363v0c-0.044-0.002-0.095-0.02-0.153-0.053-0.063-0.036-0.119-0.114-0.165-0.232v0c-0.571-1.449-1.083-2.628-1.536-3.535v0c-0.017-0.01-0.272-0.407-0.764-1.192v0c-0.064 0.193-0.149 0.381-0.254 0.565-0.102 0.179-0.232 0.28-0.391 0.304-0.165 0.021-0.305-0.048-0.421-0.206v0c-0.208-0.279-0.102-0.826 0.317-1.641v0c-0.025-0.037-0.022-0.081 0.008-0.133v0l-1.681-2.679c-0.099-0.148-0.199-0.308-0.299-0.48-0.091-0.174-0.166-0.305-0.224-0.391-0.049-0.089-0.101-0.184-0.158-0.285-0.057-0.101-0.093-0.179-0.108-0.233-0.015-0.054-0.03-0.109-0.044-0.163v0c-0.064-0.128-0.001-0.36 0.189-0.694 0.194-0.34 0.421-0.516 0.68-0.529v0c0.099-0.012 0.229 0.027 0.391 0.119 0.167 0.095 0.317 0.261 0.449 0.498 0.127 0.233 0.194 0.443 0.202 0.631 0.008 0.188 0.048 0.337 0.123 0.448v0z" fill="#001f3f" data-fill-palette-color="accent"></path><path d="M227.373 162.916v0c-0.529-0.625-0.976-1.019-1.34-1.18-0.364-0.161-0.671-0.246-0.921-0.254-0.247-0.015-0.409-0.134-0.485-0.356-0.079-0.216-0.047-0.434 0.094-0.655v0c0.252-0.324 0.745-0.324 1.479 0 0.728 0.322 1.496 1.172 2.302 2.551v0c0.506 0.202 0.867 0.057 1.084-0.435 0.217-0.492 0.017-1.476-0.6-2.953v0c-0.337-0.715-0.561-1.169-0.671-1.363-0.113-0.188-0.128-0.318-0.046-0.39 0.089-0.07 0.151-0.096 0.188-0.08v0c0.182 0.08 0.511 0.617 0.986 1.611v0c0.82 1.61 1.053 2.816 0.699 3.617v0c-0.233 0.528-0.626 0.801-1.178 0.818v0c0.222 0.533 0.42 1.045 0.595 1.536v0c0.285 0.982 0.234 1.91-0.152 2.784v0c-0.217 0.492-0.517 0.849-0.898 1.072v0c-0.667 0.475-1.492 0.495-2.476 0.061v0c-1.081-0.477-2.014-1.329-2.8-2.554v0c-0.477-0.711-0.836-1.458-1.079-2.24v0c-0.389-1.238-0.405-2.261-0.048-3.068v0c0.088-0.2 0.2-0.379 0.335-0.538v0c0.423-0.466 0.89-0.586 1.4-0.361v0c0.419 0.185 0.58 0.387 0.484 0.606v0c-0.077 0.075-0.233 0.06-0.47-0.045v0c-0.328-0.145-0.572-0.035-0.733 0.33v0c-0.282 0.637-0.062 1.717 0.658 3.239 0.729 1.519 1.641 2.64 2.737 3.364v0c0.19 0.128 0.407 0.245 0.649 0.352 0.249 0.11 0.567 0.153 0.956 0.128 0.394-0.022 0.689-0.254 0.885-0.697 0.198-0.449 0.214-1.026 0.046-1.731-0.165-0.711-0.467-1.414-0.907-2.11v0l-0.2 0.01c-0.324-0.056-0.544-0.197-0.662-0.423-0.118-0.226-0.088-0.441 0.089-0.646z" fill="#001f3f" data-fill-palette-color="accent"></path><path d="M235.359 152.8v0c-0.295 0.972-1.03 1.279-2.205 0.922-1.175-0.357-2.364-1.637-3.567-3.841v0c-0.093-0.174-0.172-0.302-0.237-0.384v0l-0.225-0.286c-0.281-0.377-0.472-0.57-0.573-0.58v0l-0.283 0.007c-0.252 0.007-0.512 0.271-0.782 0.793-0.278 0.526-0.469 0.96-0.573 1.303v0c1.905 2.451 2.987 3.866 3.247 4.243 0.262 0.371 0.35 0.595 0.264 0.673-0.086 0.078-0.167 0.105-0.243 0.082-0.076-0.023-0.173-0.115-0.291-0.275v0c-0.943-1.417-2.019-2.715-3.229-3.894v0c-0.108 0.217-0.242 0.363-0.403 0.439-0.155 0.078-0.368 0.024-0.638-0.162-0.263-0.184-0.571-0.597-0.924-1.238-0.349-0.633-0.554-1.157-0.615-1.571-0.06-0.42-0.094-0.684-0.104-0.791-0.009-0.107 0.004-0.217 0.039-0.331v0c0.069-0.229 0.389-0.048 0.959 0.541v0l1.44 1.665c0.319-0.846 0.572-1.574 0.757-2.184v0l0.275-1.009c0.098-0.324 0.212-0.549 0.341-0.677 0.135-0.125 0.296-0.118 0.482 0.022v0c0.321 0.243 0.706 0.724 1.154 1.443v0c0.993 1.55 2.157 2.843 3.492 3.88v0c0.321 0.243 0.616 0.405 0.882 0.487v0c0.552 0.168 0.89 0.049 1.014-0.358v0c0.041-0.133 0.012-0.416-0.086-0.848-0.096-0.438-0.407-1.216-0.934-2.334-0.526-1.124-1.088-2.068-1.689-2.833v0c-0.072-0.105-0.07-0.202 0.005-0.289 0.084-0.093 0.148-0.132 0.192-0.119 0.051 0.015 0.099 0.051 0.145 0.106v0c0.428 0.442 0.928 1.159 1.5 2.152 0.581 0.988 1.012 1.909 1.292 2.765v0c0.325 0.848 0.365 1.675 0.121 2.481z" fill="#001f3f" data-fill-palette-color="accent"></path><path d="M4.279 117.696c0-4.223 3.423-7.646 7.645-7.646 4.223 0 7.646 3.423 7.646 7.646 0 4.223-3.423 7.646-7.646 7.645-4.223 0-7.646-3.423-7.645-7.645z" fill="#001f3f" data-fill-palette-color="accent"></path><path d="M224.861 117.696c0-4.223 3.423-7.646 7.646-7.646 4.223 0 7.646 3.423 7.646 7.646 0 4.223-3.423 7.646-7.646 7.645-4.223 0-7.646-3.423-7.646-7.645z" fill="#001f3f" data-fill-palette-color="accent"></path></g></svg></g></svg></g></svg></g><defs></defs><mask id="cc636c8c-e651-4a7a-a28c-e7bb3d6f68c6"><g id="SvgjsG1073"><svg viewBox="0 0 395.52 144.36292936387068" height="144.36292936387068" width="395.52"><g><svg viewBox="0 0 669.6836364654374 244.43135999999998" height="144.36292936387068" width="395.52"><g transform="matrix(1,0,0,1,274.16363646543743,82.75334770337275)"><svg viewBox="0 0 395.52 78.92466459325448" height="78.92466459325448" width="395.52"><g id="SvgjsG1072"><svg viewBox="0 0 395.52 78.92466459325448" height="78.92466459325448" width="395.52" id="SvgjsSvg1071"><g><svg viewBox="0 0 395.52 50.37746567281287" height="50.37746567281287" width="395.52"><g transform="matrix(1,0,0,1,0,0)"><svg width="395.52" viewBox="0.550000011920929 -29.5 382.3000183105469 48.70000076293945" height="50.37746567281287" data-palette-color="#111111"></svg></g></svg></g><g transform="matrix(1,0,0,1,0,62.27037625898784)"><svg viewBox="0 0 232.209792 16.65428833426664" height="16.65428833426664" width="232.209792"><g transform="matrix(1,0,0,1,0,0)"><svg width="232.209792" viewBox="3 -37.79999923706055 696.3800048828125 49.94999694824219" height="16.65428833426664" data-palette-color="url(#38a077e1-3464-47c3-af2b-5875083f9894)"><path d="M12.55 0L3.5 0 3.5-27.4 3-32.4 3.5-35.4 12.55-35.4 12.55 0ZM18.55-15.05L17.55-20.55 19.1-23.6 26.55-23.6 26.55-21.45 27-21.15Q27.55-21.65 28.52-22.33 29.5-23 30.9-23.55 32.3-24.1 34.05-24.1L34.05-24.1Q39.25-24.1 41.5-20.65L41.5-20.65Q42.4-21.9 44.22-23.03 46.05-24.15 49.3-24.15L49.3-24.15Q53.8-24.15 56.05-21.6 58.3-19.05 58.3-14.45L58.3-14.45 58.3-8.05 59.35-3.05 58.3 0 49.3 0 49.3-13.15Q49.3-15.05 48.47-16.07 47.65-17.1 45.9-17.1L45.9-17.1Q44.75-17.1 43.9-16.25 43.05-15.4 43.05-14.1L43.05-14.1 43.05 0 34.05 0 34.05-13.1Q34.05-15 33.22-16.03 32.4-17.05 30.65-17.05L30.65-17.05 27.55-16.1 27.55 0 18.55 0 18.55-15.05ZM70.84 0.5L70.84 0.5Q68.7 0.5 66.87-0.13 65.05-0.75 63.95-2.3 62.85-3.85 62.85-6.6L62.85-6.6Q62.85-9.1 64.09-10.75 65.34-12.4 67.5-13.2 69.65-14 72.34-14L72.34-14Q74.95-14 76.25-13.43 77.55-12.85 78.5-12.25L78.5-12.25 78.84-12.55Q78.84-14.05 78.59-15.05 78.34-16.05 77.45-16.57 76.55-17.1 74.65-17.1L74.65-17.1Q72.8-17.1 70.72-16.78 68.65-16.45 66.92-15.98 65.2-15.5 64.34-15.05L64.34-15.05 64.34-22.55Q65.9-23.1 68.77-23.58 71.65-24.05 75.84-24.05L75.84-24.05Q80.34-24.05 82.97-22.93 85.59-21.8 86.75-19.68 87.9-17.55 87.9-14.6L87.9-14.6 87.9-7.95 88.9-2.9 87.9 0.05 79.34 0.05 79.34-2.4 78.84-2.65Q78.45-2.25 77.45-1.5 76.45-0.75 74.8-0.13 73.15 0.5 70.84 0.5ZM75.09-6.05L75.09-6.05Q76.45-6.05 77.42-6.3 78.4-6.55 78.84-6.75L78.84-6.75 78.84-7.7Q78.84-8.35 77.92-8.95 77-9.55 75.05-9.55L75.05-9.55Q72.34-9.55 72.34-7.65L72.34-7.65Q72.34-6.85 72.95-6.45 73.55-6.05 75.09-6.05ZM103.69 12.15L103.69 12.15Q102.44 12.15 100.84 12.08 99.24 12 98.24 11.9L98.24 11.9 92.14 8.95 94.64 2.45 102.49 5Q109.14 5 109.14-0.55L109.14-0.55 109.14-1.5 108.64-1.75Q107.94-1.05 106.42-0.33 104.89 0.4 101.64 0.4L101.64 0.4Q99.29 0.4 97.09-0.78 94.89-1.95 93.52-4.55 92.14-7.15 92.14-11.3L92.14-11.3Q92.14-15.95 93.54-18.78 94.94-21.6 97.12-22.9 99.29-24.2 101.64-24.2L101.64-24.2Q104.24-24.2 105.92-23.45 107.59-22.7 108.14-22L108.14-22 108.14-23.65 117.19-23.65 117.69-20.65 117.14-17.65 117.19-0.05Q117.19 4.25 115.52 6.95 113.84 9.65 110.82 10.9 107.79 12.15 103.69 12.15ZM105.39-6.65L105.39-6.65Q106.29-6.65 107.04-6.9 107.79-7.15 108.14-7.35L108.14-7.35 108.14-16.7Q107.94-16.85 107.39-17 106.84-17.15 105.89-17.15L105.89-17.15Q103.94-17.15 102.79-15.9 101.64-14.65 101.64-11.85L101.64-11.85Q101.64-9.1 102.74-7.88 103.84-6.65 105.39-6.65ZM133.54-31.45L127.19-25.05 120.84-31.45 127.19-37.8 133.54-31.45ZM131.69 0L122.69 0 122.69-16.55 121.64-20.55 122.64-23.6 131.69-23.6 131.69 0ZM146.29 0L137.29 0 137.29-15.05 136.29-20.55 137.84-23.6 145.29-23.6 145.29-21.45 145.74-21.15Q146.29-21.65 147.26-22.33 148.24-23 149.64-23.55 151.04-24.1 152.79-24.1L152.79-24.1Q157.29-24.1 159.54-21.55 161.79-19 161.79-14.4L161.79-14.4 161.79-8.05 162.84-3.05 161.79 0 152.79 0 152.79-13.1Q152.79-15 151.96-16.03 151.14-17.05 149.39-17.05L149.39-17.05 146.29-16.1 146.29 0ZM174.14 0.5L174.14 0.5Q171.99 0.5 170.16-0.13 168.34-0.75 167.24-2.3 166.14-3.85 166.14-6.6L166.14-6.6Q166.14-9.1 167.39-10.75 168.64-12.4 170.79-13.2 172.94-14 175.64-14L175.64-14Q178.24-14 179.54-13.43 180.84-12.85 181.79-12.25L181.79-12.25 182.14-12.55Q182.14-14.05 181.89-15.05 181.64-16.05 180.74-16.57 179.84-17.1 177.94-17.1L177.94-17.1Q176.09-17.1 174.01-16.78 171.94-16.45 170.21-15.98 168.49-15.5 167.64-15.05L167.64-15.05 167.64-22.55Q169.19-23.1 172.06-23.58 174.94-24.05 179.14-24.05L179.14-24.05Q183.64-24.05 186.26-22.93 188.89-21.8 190.04-19.68 191.19-17.55 191.19-14.6L191.19-14.6 191.19-7.95 192.19-2.9 191.19 0.05 182.64 0.05 182.64-2.4 182.14-2.65Q181.74-2.25 180.74-1.5 179.74-0.75 178.09-0.13 176.44 0.5 174.14 0.5ZM178.39-6.05L178.39-6.05Q179.74-6.05 180.71-6.3 181.69-6.55 182.14-6.75L182.14-6.75 182.14-7.7Q182.14-8.35 181.21-8.95 180.29-9.55 178.34-9.55L178.34-9.55Q175.64-9.55 175.64-7.65L175.64-7.65Q175.64-6.85 176.24-6.45 176.84-6.05 178.39-6.05ZM205.83 0.5L205.83 0.5Q202.43 0.5 200.38-1.5 198.33-3.5 198.33-6.55L198.33-6.55 198.33-17.45 194.68-17.45 194.68-22.2 197.83-24.65 201.38-30.85 207.28-30.85 207.28-23.6 214.28-23.6 214.28-17.1 207.28-17.1 207.28-6.4 214.28-6.45 214.28-1Q214.28-1 213.11-0.63 211.93-0.25 210.03 0.13 208.13 0.5 205.83 0.5ZM229.63-31.45L223.28-25.05 216.93-31.45 223.28-37.8 229.63-31.45ZM227.78 0L218.78 0 218.78-16.55 217.73-20.55 218.73-23.6 227.78-23.6 227.78 0ZM244.43 0.5L244.43 0.5Q238.33 0.5 234.98-2.4 231.63-5.3 231.63-11.8L231.63-11.8Q231.63-18.35 234.98-21.23 238.33-24.1 244.43-24.1L244.43-24.1Q250.68-24.1 253.9-21.23 257.13-18.35 257.13-11.8L257.13-11.8Q257.13-5.3 253.9-2.4 250.68 0.5 244.43 0.5ZM244.43-6L244.43-6Q246.48-6 247.28-7.53 248.08-9.05 248.08-11.8L248.08-11.8Q248.08-14.6 247.28-16.1 246.48-17.6 244.43-17.6L244.43-17.6Q242.33-17.6 241.5-16.1 240.68-14.6 240.68-11.8L240.68-11.8Q240.68-9.05 241.5-7.53 242.33-6 244.43-6ZM270.38 0L261.38 0 261.38-15.05 260.38-20.55 261.93-23.6 269.38-23.6 269.38-21.45 269.83-21.15Q270.38-21.65 271.35-22.33 272.33-23 273.73-23.55 275.13-24.1 276.88-24.1L276.88-24.1Q281.38-24.1 283.63-21.55 285.88-19 285.88-14.4L285.88-14.4 285.88-8.05 286.93-3.05 285.88 0 276.88 0 276.88-13.1Q276.88-15 276.05-16.03 275.23-17.05 273.48-17.05L273.48-17.05 270.38-16.1 270.38 0ZM314.32 0L304.72 0 304.72-27.35 303.72-32.35 304.77-35.35 314.32-35.35 324.12-16.35 325.12-16.35 333.22-35.35 343.17-35.35 343.67-32.35 343.17-27.55 343.17 0 334.12 0 334.27-4.25 334.27-18.2 333.72-18.2 331.72-13.4 327.22-5 321.22-5 314.32-18.2 313.82-18.2 313.82-14.15 314.32 0ZM361.17 0.5L361.17 0.5Q357.32 0.5 354.32-0.65 351.32-1.8 349.62-4.5 347.92-7.2 347.92-11.8L347.92-11.8Q347.92-15.1 349.04-17.45 350.17-19.8 352.07-21.28 353.97-22.75 356.32-23.43 358.67-24.1 361.17-24.1L361.17-24.1Q365.47-24.1 367.79-23.25 370.12-22.4 370.87-21.9L370.87-21.9 373.37-13.95 372.37-10.85 356.87-10.85Q357.22-9 358.72-7.75 360.22-6.5 363.67-6.5L363.67-6.5Q366.37-6.5 368.32-7.1 370.27-7.7 371.37-8.15L371.37-8.15 371.37-1.45Q369.87-0.65 367.04-0.08 364.22 0.5 361.17 0.5ZM356.92-14.05L356.92-14.05 363.82-15.05 363.37-17.2Q363.02-17.4 362.34-17.5 361.67-17.6 361.17-17.6L361.17-17.6Q359.77-17.6 358.84-17 357.92-16.4 357.44-15.58 356.97-14.75 356.92-14.05ZM389.07 0.5L389.07 0.5Q385.22 0.5 382.22-0.65 379.22-1.8 377.52-4.5 375.82-7.2 375.82-11.8L375.82-11.8Q375.82-15.1 376.94-17.45 378.07-19.8 379.97-21.28 381.87-22.75 384.22-23.43 386.57-24.1 389.07-24.1L389.07-24.1Q393.37-24.1 395.69-23.25 398.02-22.4 398.77-21.9L398.77-21.9 401.27-13.95 400.27-10.85 384.77-10.85Q385.12-9 386.62-7.75 388.12-6.5 391.57-6.5L391.57-6.5Q394.27-6.5 396.22-7.1 398.17-7.7 399.27-8.15L399.27-8.15 399.27-1.45Q397.77-0.65 394.94-0.08 392.12 0.5 389.07 0.5ZM384.82-14.05L384.82-14.05 391.72-15.05 391.27-17.2Q390.92-17.4 390.24-17.5 389.57-17.6 389.07-17.6L389.07-17.6Q387.67-17.6 386.74-17 385.82-16.4 385.34-15.58 384.87-14.75 384.82-14.05ZM414.11 0.5L414.11 0.5Q410.71 0.5 408.66-1.5 406.61-3.5 406.61-6.55L406.61-6.55 406.61-17.45 402.96-17.45 402.96-22.2 406.11-24.65 409.66-30.85 415.56-30.85 415.56-23.6 422.56-23.6 422.56-17.1 415.56-17.1 415.56-6.4 422.56-6.45 422.56-1Q422.56-1 421.39-0.63 420.21-0.25 418.31 0.13 416.41 0.5 414.11 0.5ZM436.81 0.5L436.81 0.5Q433.16 0.5 430.36-0.25 427.56-1 426.01-1.8L426.01-1.8 426.01-8.75Q428.06-7.85 430.24-7.35 432.41-6.85 434.16-6.68 435.91-6.5 436.66-6.5L436.66-6.5Q437.51-6.5 437.86-6.78 438.21-7.05 438.21-7.45L438.21-7.45Q438.21-8 437.31-8.38 436.41-8.75 433.91-9.35L433.91-9.35Q431.86-9.85 429.94-10.63 428.01-11.4 426.79-12.8 425.56-14.2 425.56-16.55L425.56-16.55Q425.56-19.45 426.91-21.1 428.26-22.75 430.76-23.43 433.26-24.1 436.61-24.1L436.61-24.1Q438.51-24.1 440.16-23.9 441.81-23.7 442.51-23.6L442.51-23.6 447.16-20.6 444.91-15.25 436.16-17.15Q434.56-17.15 434.56-16.1L434.56-16.1Q434.56-15 436.86-14.45L436.86-14.45Q438.66-14.05 440.56-13.58 442.46-13.1 444.04-12.35 445.61-11.6 446.59-10.35 447.56-9.1 447.56-7.05L447.56-7.05Q447.56-3.25 444.84-1.38 442.11 0.5 436.81 0.5ZM481.01 0.5L481.01 0.5Q477.61 0.5 474.41-0.28 471.21-1.05 468.63-3.05 466.06-5.05 464.56-8.6 463.06-12.15 463.06-17.7L463.06-17.7Q463.06-22.85 464.56-26.35 466.06-29.85 468.56-31.95 471.06-34.05 474.03-34.98 477.01-35.9 480.01-35.9L480.01-35.9Q482.56-35.9 484.98-35.5 487.41-35.1 488.51-34.6L488.51-34.6 494.06-30.05 489.56-22.8 481.01-27.2Q477.46-27.2 475.01-24.88 472.56-22.55 472.56-17.7L472.56-17.7Q472.56-14.25 473.78-12.1 475.01-9.95 477.16-8.95 479.31-7.95 482.06-7.95L482.06-7.95Q484.96-7.95 487.01-8.43 489.06-8.9 490.61-9.58 492.16-10.25 493.56-10.9L493.56-10.9 493.56-2.5Q491.81-1.4 488.91-0.45 486.01 0.5 481.01 0.5ZM507.7 0L498.8 0 498.8-15.65 497.75-20.65 498.8-23.65 505.6-23.65 506.6-22.5Q506.6-22.5 507.3-22.93 508-23.35 509.28-23.75 510.55-24.15 512.25-24.15L512.25-24.15Q513.25-24.15 514.25-24 515.25-23.85 515.8-23.6L515.8-23.6 519.05-20.85 515.8-14.45 509.2-17.2 507.7-16.7 507.7 0ZM532.05 0.5L532.05 0.5Q528.2 0.5 525.2-0.65 522.2-1.8 520.5-4.5 518.8-7.2 518.8-11.8L518.8-11.8Q518.8-15.1 519.92-17.45 521.05-19.8 522.95-21.28 524.85-22.75 527.2-23.43 529.55-24.1 532.05-24.1L532.05-24.1Q536.35-24.1 538.67-23.25 541-22.4 541.75-21.9L541.75-21.9 544.25-13.95 543.25-10.85 527.75-10.85Q528.1-9 529.6-7.75 531.1-6.5 534.55-6.5L534.55-6.5Q537.25-6.5 539.2-7.1 541.15-7.7 542.25-8.15L542.25-8.15 542.25-1.45Q540.75-0.65 537.92-0.08 535.1 0.5 532.05 0.5ZM527.8-14.05L527.8-14.05 534.7-15.05 534.25-17.2Q533.9-17.4 533.22-17.5 532.55-17.6 532.05-17.6L532.05-17.6Q530.65-17.6 529.72-17 528.8-16.4 528.32-15.58 527.85-14.75 527.8-14.05ZM554.95 0.5L554.95 0.5Q552.8 0.5 550.97-0.13 549.15-0.75 548.05-2.3 546.95-3.85 546.95-6.6L546.95-6.6Q546.95-9.1 548.2-10.75 549.45-12.4 551.6-13.2 553.75-14 556.45-14L556.45-14Q559.05-14 560.35-13.43 561.65-12.85 562.6-12.25L562.6-12.25 562.95-12.55Q562.95-14.05 562.7-15.05 562.45-16.05 561.55-16.57 560.65-17.1 558.75-17.1L558.75-17.1Q556.9-17.1 554.82-16.78 552.75-16.45 551.02-15.98 549.3-15.5 548.45-15.05L548.45-15.05 548.45-22.55Q550-23.1 552.87-23.58 555.75-24.05 559.95-24.05L559.95-24.05Q564.45-24.05 567.07-22.93 569.7-21.8 570.85-19.68 572-17.55 572-14.6L572-14.6 572-7.95 573-2.9 572 0.05 563.45 0.05 563.45-2.4 562.95-2.65Q562.55-2.25 561.55-1.5 560.55-0.75 558.9-0.13 557.25 0.5 554.95 0.5ZM559.2-6.05L559.2-6.05Q560.55-6.05 561.52-6.3 562.5-6.55 562.95-6.75L562.95-6.75 562.95-7.7Q562.95-8.35 562.02-8.95 561.1-9.55 559.15-9.55L559.15-9.55Q556.45-9.55 556.45-7.65L556.45-7.65Q556.45-6.85 557.05-6.45 557.65-6.05 559.2-6.05ZM586.64 0.5L586.64 0.5Q583.24 0.5 581.19-1.5 579.14-3.5 579.14-6.55L579.14-6.55 579.14-17.45 575.49-17.45 575.49-22.2 578.64-24.65 582.19-30.85 588.09-30.85 588.09-23.6 595.09-23.6 595.09-17.1 588.09-17.1 588.09-6.4 595.09-6.45 595.09-1Q595.09-1 593.92-0.63 592.74-0.25 590.84 0.13 588.94 0.5 586.64 0.5ZM610.44-31.45L604.09-25.05 597.74-31.45 604.09-37.8 610.44-31.45ZM608.59 0L599.59 0 599.59-16.55 598.54-20.55 599.54-23.6 608.59-23.6 608.59 0ZM629.49 0L618.99 0 612.69-17.1 611.69-23.6 621.19-23.6 623.94-8 624.94-8 627.74-23.6 637.19-23.6 636.19-17.1 629.49 0ZM651.54-31.45L645.19-25.05 638.84-31.45 645.19-37.8 651.54-31.45ZM649.69 0L640.69 0 640.69-16.55 639.64-20.55 640.64-23.6 649.69-23.6 649.69 0ZM663.93 0.5L663.93 0.5Q660.53 0.5 658.48-1.5 656.43-3.5 656.43-6.55L656.43-6.55 656.43-17.45 652.78-17.45 652.78-22.2 655.93-24.65 659.48-30.85 665.38-30.85 665.38-23.6 672.38-23.6 672.38-17.1 665.38-17.1 665.38-6.4 672.38-6.45 672.38-1Q672.38-1 671.21-0.63 670.03-0.25 668.13 0.13 666.23 0.5 663.93 0.5ZM678.93 12.15L678.93 12.15 671.88 9.65 673.88 2.2 680.88 4.2Q683.03 4.2 684.01 3.08 684.98 1.95 685.48-0.05L685.48-0.05 680.33-0.05 674.83-17.15 673.88-23.65 683.38-23.65 686.13-7.15 687.13-7.15 689.88-23.65 699.38-23.65Q699.38-23.65 699.06-22.08 698.73-20.5 698.16-17.9 697.58-15.3 696.81-12.18 696.03-9.05 695.18-5.88 694.33-2.7 693.43-0.05L693.43-0.05Q692.08 4.1 690.21 6.8 688.33 9.5 685.63 10.83 682.93 12.15 678.93 12.15Z" opacity="1" transform="matrix(1,0,0,1,0,0)" fill="white" class="slogan-text-1" id="SvgjsPath1069"></path></svg></g></svg></g></svg></g></svg></g><g><svg viewBox="0 0 244.43135999999998 244.43135999999998" height="244.43135999999998" width="244.43135999999998"><g><svg viewBox="0 0 244.43135999999998 244.43135999999998" height="244.43135999999998" width="244.43135999999998"><g transform="matrix(1,0,0,1,64.60265593644993,64.69775599451165)"><svg viewBox="0 0 115.22604812710013 115.03584801097666" height="115.03584801097666" width="115.22604812710013"><g><svg xmlns="http://www.w3.org/2000/svg" xmlns:xlink="http://www.w3.org/1999/xlink" version="1.1" x="0" y="0" viewBox="0 0.20499849319458008 99.95999908447266 99.79499816894531" enable-background="new 0 0 100 100" xml:space="preserve" height="115.03584801097666" width="115.22604812710013" class="icon-s-0" data-fill-palette-color="accent" id="SvgjsSvg1068"></svg></g></svg></g><g></g></svg></g></svg></g></svg></g><defs><mask></mask></defs></svg></g></mask><linearGradient x1="0" x2="1" y1="0.5" y2="0.5" id="38a077e1-3464-47c3-af2b-5875083f9894"><stop stop-color="#ffa62e" offset="0"></stop><stop stop-color="#f71b3d" offset="1"></stop></linearGradient><rect width="395.5199890136719" height="144.3629608154297" fill="url(#38a077e1-3464-47c3-af2b-5875083f9894)" mask="url(#cc636c8c-e651-4a7a-a28c-e7bb3d6f68c6)" data-fill-palette-color="secondary"></rect></svg><rect width="395.52" height="144.36292936387068" fill="none" stroke="none" visibility="hidden"></rect></g></svg></g></svg>